<svg width="36" height="34" viewBox="0 0 36 34" fill="none" xmlns="http://www.w3.org/2000/svg">
<path d="M12.547 27.2252C11.6907 27.0069 10.8414 26.6805 10.0129 26.2353L5.83537 28.6757L3.34934 26.1896L5.60791 21.97C5.1696 21.1999 4.82559 20.3798 4.58332 19.5275L0 18.2825V14.7606L4.55885 13.4215C4.79285 12.5717 5.12768 11.7456 5.56432 10.9642L3.2457 6.8189L5.73187 4.33286L9.91041 6.68003C10.7075 6.24128 11.5251 5.91243 12.3497 5.6856L13.639 0.983521H17.161L18.4878 5.78418C19.2619 6.02145 20.0086 6.3406 20.7151 6.73621L25.1026 4.22922L27.5887 6.71532L25.0944 11.1445C25.7343 12.3208 26.1702 13.6379 26.3415 15.0623H21.9417C21.0561 10.6764 15.9914 8.1857 11.8849 10.5531C7.36847 13.1569 7.36847 19.7016 11.8849 22.3054C13.1198 23.0173 14.4413 23.2892 15.7099 23.203V28.7916H12.998L12.547 27.2252ZM35.2475 30.2761H14.277C14.277 31.9261 15.6227 33.0165 17.2728 33.0165H32.2516C33.9017 33.0165 35.2474 31.9261 35.2474 30.2761M30.7538 25.4077C30.8782 27.18 29.6068 28.333 28.1325 28.333H19.8939C18.4546 28.333 17.2727 27.2215 17.2727 25.7822V17.1692C17.2727 16.7596 17.612 16.4203 18.0217 16.4203H31.5027C37.7121 16.7321 37.5185 25.7976 30.7538 25.4077ZM30.7538 18.6671V23.1609C35.0421 23.53 34.4689 18.0711 30.7538 18.6672" fill="#18614D"/>
</svg>
