<svg width="30" height="30" viewBox="0 0 30 30" fill="none" xmlns="http://www.w3.org/2000/svg">
<path d="M29 2.11501L28.82 0.225006L27.02 0.825006C23.9351 1.89682 20.6409 2.22573 17.405 1.78501C14.0047 1.25732 10.5243 1.72623 7.38497 3.13501C5.72069 3.84368 4.2601 4.95738 3.13618 6.37472C2.01226 7.79206 1.26072 9.46802 0.949968 11.25C0.547037 13.552 0.748611 15.9192 1.53497 18.12C2.0413 16.9771 2.63297 15.874 3.30497 14.82C4.82927 12.5773 6.94139 10.7973 9.40997 9.67501C11.7881 8.58919 14.3875 8.07547 17 8.17501C14.5132 8.55611 12.1329 9.45002 10.01 10.8C8.98637 11.4435 8.04884 12.2147 7.21997 13.095C6.42763 13.9752 5.72888 14.9354 5.13497 15.96C4.01996 18.1021 3.22645 20.3967 2.77997 22.77C2.29877 25.151 2.03767 27.5712 1.99997 30H4.99997C5.14251 27.8219 5.43825 25.6566 5.88497 23.52C7.96612 24.6438 10.3 25.217 12.665 25.185C14.8707 25.1835 17.0537 24.7397 19.085 23.88C30.5 19.005 29 2.79001 29 2.11501Z" fill="#18614D"/>
</svg>