<svg width="212" height="46" viewBox="0 0 212 46" fill="none" xmlns="http://www.w3.org/2000/svg">
<g clip-path="url(#clip0_1_1609)">
<path d="M33.7424 32.0417C34.2361 32.4112 34.7299 31.5242 34.8404 30.151C34.9472 28.7777 33.9708 27.6184 33.9708 27.6184C34.1367 27.914 34.0703 28.5482 33.665 29.8125C33.2597 31.073 33.2266 31.6565 33.7461 32.0455L33.7424 32.0417Z" fill="#18614D"/>
<path d="M32.8322 23.5842C33.1306 23.7203 33.4291 24.2766 33.7975 25.5488C34.166 26.8209 34.4645 27.3149 35.1019 27.3072C35.7061 27.3033 35.6178 26.2762 34.9434 25.0975C34.2692 23.9148 32.8322 23.5803 32.8322 23.5803V23.5842Z" fill="#18614D"/>
<path d="M33.9784 4.78234C33.9864 4.81336 33.9904 4.83664 33.9904 4.85992C33.9904 4.85992 33.9904 4.83275 33.9784 4.78234Z" fill="#18614D"/>
<path d="M33.3561 36.2353C33.2787 36.2003 33.1939 36.1847 33.1129 36.1886C32.9176 36.2003 32.7371 36.3209 32.656 36.5193C32.5381 36.8033 32.656 37.134 32.9249 37.2584C33.1939 37.383 33.5071 37.2584 33.625 36.9745C33.7429 36.6905 33.625 36.3598 33.3561 36.2353Z" fill="#18614D"/>
<path d="M14.0447 38.7912C14.9917 37.7525 15.1796 37.2312 15.0358 36.2236C14.9843 35.8618 14.9106 35.5623 14.7669 35.2316C14.649 34.9632 14.3211 34.6364 14.0926 34.4575C13.7352 34.1735 13.3189 33.975 12.9504 33.7066C12.1656 33.1386 11.985 32.6173 12.1914 31.6331C12.3903 30.6839 12.6851 29.7424 12.5709 28.7504C12.4751 27.9295 12.803 27.4238 13.5068 27.1165C14.3874 26.7353 15.0248 26.0506 15.4706 25.1869C15.7617 24.6228 15.9607 24.0043 16.2444 23.4363C16.5097 22.9072 16.7787 22.3587 17.1398 21.9035C17.7625 21.1138 18.3188 20.752 19.1663 20.2579C19.9069 19.8261 19.5311 19.4876 19.3984 19.4682C18.4773 19.3164 17.5524 19.1453 16.6239 19.0869C16.5724 19.0869 16.5244 19.0869 16.4802 19.0869C15.9533 19.1142 15.7065 19.5032 15.6991 20.1178C15.6991 20.3279 15.7028 20.538 15.7028 20.752C15.7028 22.312 15.5591 23.5141 14.3505 24.5606C14.0816 24.794 13.7647 24.9535 13.4294 25.0546C11.436 25.6732 10.7986 26.5796 11.6866 28.3536C12.383 29.7385 10.2901 31.9832 9.85164 32.699C9.43896 33.3759 9.81113 34.154 10.5738 34.3018C10.8723 34.3602 11.167 34.4419 11.436 34.5897C12.744 35.3172 12.9799 35.8541 12.9246 36.5543C12.8472 37.4841 12.7772 38.1221 12.3571 38.7523C12.1877 39.0052 12.4972 39.3475 12.792 39.3086C13.3704 39.2386 13.7389 39.1258 14.0447 38.7912Z" fill="#18614D"/>
<path d="M32.0661 39.297C32.0183 39.227 31.9408 39.1842 31.8635 39.1881C31.7493 39.1959 31.6424 39.3048 31.6424 39.5693C31.6498 40.682 31.1708 42.063 30.3712 42.9772C30.3896 42.9889 30.876 42.5182 31.0786 42.3353C32.184 41.2538 32.2577 39.5849 32.0661 39.2932V39.297Z" fill="#18614D"/>
<path d="M31.3365 42.452C31.2444 42.4559 31.1412 42.5376 31.0712 42.736C30.7064 43.7786 29.8 44.8951 28.7462 45.4592C28.7573 45.4747 29.3689 45.218 29.6195 45.1207C31.0159 44.5178 31.6386 42.9811 31.5539 42.6387C31.5281 42.5298 31.4359 42.4481 31.3327 42.452H31.3365Z" fill="#18614D"/>
<path d="M10.9351 29.9874C11.1377 29.5906 11.1746 29.0848 11.2299 28.6219C11.2483 28.4624 11.0935 28.2835 11.0198 28.1123C10.8945 28.2407 10.7435 28.3457 10.655 28.4974C10.5592 28.6608 10.5224 28.8631 10.4671 29.0537C10.2092 29.9563 9.95131 30.8627 9.69336 31.7653C9.70814 31.7886 9.72287 31.8081 9.74128 31.8275C10.1466 31.2167 10.6035 30.6371 10.9351 29.9874Z" fill="#18614D"/>
<path d="M27.1508 42.7671C26.5171 43.3429 26.0639 44.2182 25.3012 44.6734C24.4427 45.4086 22.9614 45.292 22.2172 44.4633C21.764 43.9576 21.307 43.4479 20.8759 42.9228C20.6512 42.6427 20.4744 42.3198 20.2791 42.0125C20.1906 41.8218 20.5628 42.1214 20.6807 42.1914C21.2223 42.5143 21.7529 42.845 22.4125 42.8839C22.7588 42.9033 23.0278 43.0122 23.352 43.1523C23.5547 43.2418 23.7057 43.4052 23.9121 43.3079C24.1663 43.1834 24.5237 42.9345 24.7927 42.9345C26.4102 42.9461 27.6188 42.0513 28.7941 41.0593C28.8826 40.9854 28.8347 40.8337 28.7205 40.8337C27.803 40.8376 26.9224 40.6703 26.0712 40.3474C25.4596 40.114 24.9622 40.1529 24.4721 40.6586C24.0521 41.0905 23.7942 41.106 23.3409 40.717C23.2341 40.6275 22.9614 40.4369 22.8435 40.3863C22.6262 40.2929 22.3756 40.114 22.1582 40.149C21.5981 40.2346 20.6291 40.4174 20.5001 40.5769C20.2938 40.7247 21.495 40.4758 21.9814 40.3746C22.3387 40.3007 22.7772 40.5224 23.0094 40.8298C23.271 41.176 23.422 41.2694 23.8826 41.2888C24.2842 41.3044 24.5679 41.106 24.8738 40.8998C25.0322 40.7909 25.2496 40.6431 25.397 40.682C26.1154 40.8765 26.8229 41.1294 27.5561 41.3667C27.453 41.4484 27.3461 41.5145 27.2577 41.604C26.2702 42.561 25.0727 42.3898 23.9158 42.8177C23.7205 42.8916 23.2746 42.6271 23.0167 42.5376C22.9467 42.5143 22.8656 42.5182 22.7846 42.526C22.7625 42.526 22.7404 42.526 22.722 42.5298C22.0956 42.5571 21.5282 42.3704 21.0455 41.9619C20.5812 41.5651 20.1427 41.1332 19.7116 40.6936C19.4758 40.4563 19.2547 40.1996 19.0337 39.9467C19.0116 39.9233 18.9858 39.9117 18.96 39.9117C18.901 39.9117 18.8495 39.9739 18.8716 40.0439C18.971 40.3902 19.0889 40.7209 19.2253 41.0438C19.8848 42.6271 20.8317 43.9848 22.1398 45.0468C22.873 45.6421 23.7315 45.7471 24.52 45.4086C25.747 44.8796 26.3918 44.0899 27.1656 42.9811C27.2503 42.8372 27.2577 42.6777 27.1656 42.7671H27.1508Z" fill="#18614D"/>
<path d="M20.3674 32.2166C20.3674 32.2166 20.3453 32.1932 20.3379 32.1932C20.2495 32.201 20.1648 32.2127 20.0763 32.2204C19.3578 32.2788 18.6725 32.1543 18.0867 31.6991C17.884 31.5435 17.7329 31.2984 17.604 31.065C17.5635 30.9911 17.6593 30.7421 17.7403 30.711C18.1198 30.5632 18.5177 30.462 18.9194 30.3375C18.9894 30.9755 19.1625 31.209 19.5126 31.1973C19.8663 31.1856 20.0432 30.9133 20.0505 30.357C20.9643 30.4542 21.7786 30.7655 22.3792 31.5358C23.0203 32.3605 22.7514 33.333 22.7698 34.259C22.8582 33.7921 22.9319 33.3252 22.9982 32.8584C23.175 31.6369 22.2466 30.606 21.4802 30.248C20.7506 29.9096 20.01 29.8396 19.2583 29.894C19.1183 29.9057 18.9783 29.9212 18.8383 29.9369C18.0682 30.038 17.0402 30.676 16.6902 31.2245C16.797 31.1623 16.8965 31.1039 16.996 31.0534C17.0955 30.9989 17.195 30.9522 17.2982 30.9016C17.7035 32.0648 19.1257 32.6601 20.3638 32.2088L20.3674 32.2166Z" fill="#18614D"/>
<path d="M29.5936 32.6989C29.2546 32.7456 28.9082 32.7339 28.5287 32.7495C29.8552 33.1035 30.9347 32.6795 31.4248 31.6135C31.6201 31.7419 31.8117 31.8703 32.0696 32.0415C31.2774 30.9249 29.9031 30.2947 28.5066 30.3686C28.1087 30.392 27.7071 30.4698 27.3165 30.6137C25.9716 31.1078 25.2678 32.4188 25.7174 34.0878C25.78 33.1891 25.7321 32.3138 26.4359 31.6758C27.0954 31.0767 27.8618 30.851 28.7388 30.8393C28.6871 31.3723 28.8345 31.6758 29.1662 31.7108C29.2914 31.7263 29.4757 31.6991 29.5493 31.6135C29.6931 31.4385 29.7741 31.209 29.9105 30.9444C30.2015 31.0572 30.5442 31.17 30.8758 31.3179C31.2222 31.4735 31.2553 31.6096 31.0232 31.9325C30.6658 32.4305 30.1499 32.6211 29.5936 32.6989Z" fill="#18614D"/>
<path d="M24.8003 37.6162C24.734 37.6512 24.6713 37.6862 24.6123 37.7212C24.4908 37.7951 24.3692 37.8807 24.2697 37.9391C24.1849 37.9857 24.0708 38.0013 23.9786 38.0013C23.8865 37.9897 23.7649 37.9624 23.6875 37.9041C23.5917 37.834 23.4812 37.7368 23.367 37.6512C23.308 37.6084 23.2528 37.5656 23.1901 37.5228C23.1312 37.4839 23.0796 37.4489 23.0022 37.4139C22.8622 37.3439 22.7185 37.3089 22.5858 37.2855C22.3169 37.2349 22.0663 37.2388 21.8342 37.2194C21.6058 37.1999 21.3884 37.1804 21.2115 37.1104C21.1673 37.091 21.1231 37.0754 21.0899 37.056L21.0346 37.0248L20.9794 36.9782C20.913 36.9276 20.8577 36.8576 20.8136 36.7914C20.7288 36.6592 20.6956 36.5152 20.6993 36.3946C20.703 36.274 20.7325 36.1768 20.7546 36.1145C20.7694 36.0795 20.7657 36.064 20.7546 36.064C20.7436 36.064 20.7288 36.0795 20.7141 36.1029C20.6809 36.1612 20.633 36.2507 20.6072 36.3829C20.5814 36.5114 20.6146 36.6903 20.6956 36.8615C20.7398 36.947 20.7878 37.0287 20.8652 37.1104L20.9167 37.1649C20.9388 37.1804 20.961 37.1999 20.9867 37.2194C21.0346 37.2583 21.0825 37.2816 21.1341 37.3089C21.5431 37.515 22.0553 37.5033 22.5269 37.6084C22.6448 37.6356 22.759 37.6706 22.8548 37.7251C22.8991 37.7484 22.958 37.7912 23.0096 37.8262C23.0612 37.8612 23.1127 37.9002 23.1643 37.9429C23.2675 38.0247 23.3633 38.1141 23.4923 38.2114C23.6102 38.3047 23.8165 38.3631 23.9639 38.3748C24.1076 38.3748 24.3139 38.3398 24.4392 38.262C24.5755 38.1803 24.6787 38.0986 24.7929 38.0324C24.8482 37.9974 24.9034 37.9663 24.9587 37.9352C25.014 37.9041 25.0766 37.869 25.1245 37.8496C25.224 37.8068 25.3419 37.7796 25.4598 37.7679C25.6256 37.7484 25.7951 37.7445 25.9609 37.7406C26.2815 37.7329 26.5947 37.7251 26.8747 37.62C26.9263 37.5967 26.9779 37.5812 27.0295 37.5462C27.0552 37.5306 27.081 37.515 27.1032 37.4994L27.1584 37.4528C27.2432 37.3827 27.2984 37.305 27.35 37.2233C27.4495 37.0598 27.4937 36.8887 27.4827 36.7564C27.4716 36.6242 27.4385 36.5269 27.409 36.4685C27.3795 36.4063 27.3463 36.4102 27.3648 36.4763C27.3832 36.5386 27.4016 36.6397 27.3942 36.7603C27.3869 36.8809 27.339 37.021 27.2395 37.1454C27.1879 37.2038 27.1253 37.2699 27.0552 37.3127L26.9926 37.3516L26.9373 37.375C26.9042 37.3944 26.8563 37.4061 26.8121 37.4178C26.6315 37.4645 26.4141 37.4645 26.182 37.4567C25.9499 37.4489 25.703 37.4217 25.4267 37.4411C25.2903 37.4489 25.1466 37.4683 24.9992 37.5228C24.9182 37.5501 24.8629 37.5812 24.8003 37.6123V37.6162Z" fill="#18614D"/>
<path d="M21.8302 24.0002C21.3144 24.0041 20.4301 24.2725 19.0005 24.9806C16.646 26.1437 16.4249 28.0344 16.4249 28.0344C17.5598 26.346 19.7411 25.922 20.9791 25.5796C22.2171 25.2373 22.5929 24.6927 22.4124 24.2686C22.3424 24.1013 22.1618 23.9963 21.8302 24.0002Z" fill="#18614D"/>
<path d="M30.1427 25.6107C28.5915 24.5331 27.6998 24.1713 27.2355 24.1986C27.0513 24.2102 26.9297 24.2803 26.8634 24.3931C26.6239 24.786 26.926 25.3812 28.1051 25.9064C29.2842 26.4316 31.3843 27.1863 32.2797 29.0264C32.2797 29.0264 32.3202 27.1202 30.1463 25.6146L30.1427 25.6107Z" fill="#18614D"/>
<path d="M15.4301 11.497C15.3012 11.5048 15.1722 11.5203 15.0654 11.5437C14.5274 11.6682 14.2806 11.8044 14.0337 11.9561C13.7868 12.1078 13.4773 12.5746 13.4773 12.5746C13.4773 12.5746 13.8163 12.3217 14.1589 12.279C14.5016 12.2362 14.8517 12.2712 14.8517 12.2712C14.8517 12.2712 14.4905 12.7963 13.6615 13.0142C13.6615 13.0142 14.3579 13.2398 15.2127 12.7497C16.0639 12.2595 16.5355 11.5554 16.5355 11.5554C16.5355 11.5554 15.946 11.4698 15.4338 11.497H15.4301Z" fill="#18614D"/>
<path d="M10.7139 9.77348C10.9276 10.3026 10.9313 11.2557 10.9681 10.9523C11.005 10.6449 11.0823 9.69571 10.9571 9.26388C10.8281 8.83205 10.2054 7.84001 10.2054 7.84001C10.2054 7.84001 9.84802 8.88649 9.86275 9.84352C9.87748 10.8005 10.537 11.3452 10.537 11.3452C10.1022 10.0536 10.4265 9.27554 10.4265 9.27554C10.4265 9.27554 10.5002 9.24443 10.7139 9.77348Z" fill="#18614D"/>
<path d="M13.6723 6.96084C13.1343 7.79339 13.208 8.44303 13.2006 8.54419C13.1933 8.64145 13.278 9.14721 13.278 9.14721C13.278 9.14721 13.348 8.57146 13.6281 8.16684C13.9081 7.76617 14.2434 7.57164 14.2434 7.57164C14.2434 7.57164 14.5713 7.99958 13.6317 9.53622C13.6317 9.53622 14.9987 9.06939 15.4114 7.90232C15.8241 6.73909 15.6804 5.38531 15.6804 5.38531C15.6804 5.38531 14.2102 6.12833 13.6686 6.96084H13.6723Z" fill="#18614D"/>
<path d="M12.5417 10.5594C12.2211 10.575 11.9522 10.8434 11.9227 11.1897C11.8895 11.5709 12.1585 11.9055 12.5196 11.9405C12.8807 11.9755 13.1976 11.6915 13.2307 11.3103C13.2639 10.929 12.9949 10.5944 12.6338 10.5594C12.6044 10.5594 12.5712 10.5594 12.5417 10.5594Z" fill="#18614D"/>
<path d="M12.1182 8.83618C12.0887 8.83618 12.0555 8.83618 12.0261 8.83618C11.7055 8.85174 11.4365 9.1202 11.4071 9.46643C11.3739 9.84766 11.6429 10.1822 12.004 10.2172C12.3651 10.2523 12.6819 9.96826 12.7151 9.58703C12.7482 9.20575 12.4793 8.87118 12.1182 8.83618Z" fill="#18614D"/>
<path d="M14.1846 11.2636C14.5457 11.2986 14.8626 11.0147 14.8957 10.6334C14.9289 10.2522 14.6599 9.9176 14.2989 9.8826C14.2694 9.8826 14.2362 9.8826 14.2067 9.8826C13.8862 9.89816 13.6172 10.1666 13.5877 10.5128C13.5546 10.894 13.8235 11.2286 14.1846 11.2636Z" fill="#18614D"/>
<path d="M7.55252 10.7966C7.55252 10.7966 7.31672 10.1859 7.37938 9.62566C7.44199 9.06546 7.66674 8.6764 7.66674 8.6764C7.66674 8.6764 8.21574 8.90204 8.10889 10.9717C8.10889 10.9717 9.20689 9.70344 8.99686 8.31073C8.78684 6.91802 7.92469 5.67313 7.92469 5.67313C7.92469 5.67313 6.87089 7.27592 6.77877 8.41577C6.69033 9.55173 7.1067 10.1508 7.15089 10.252C7.19509 10.3531 7.54884 10.8005 7.54884 10.8005L7.55252 10.7966Z" fill="#18614D"/>
<path d="M7.84716 13.2942C8.15667 13.2047 8.33723 12.8662 8.25248 12.5395C8.17877 12.2555 7.92823 12.0765 7.66292 12.0921C7.6224 12.0921 7.57821 12.0999 7.53765 12.1155C7.22814 12.2049 7.04762 12.5434 7.13233 12.8701C7.21709 13.1969 7.53765 13.3876 7.84716 13.2981V13.2942Z" fill="#18614D"/>
<path d="M6.9154 12.0336C7.22491 11.9441 7.40542 11.6057 7.32071 11.2789C7.24701 10.9949 6.99647 10.8159 6.73116 10.8315C6.69064 10.8315 6.6464 10.8393 6.60589 10.851C6.29638 10.9405 6.11586 11.2789 6.20057 11.6057C6.28533 11.9325 6.60589 12.1231 6.9154 12.0336Z" fill="#18614D"/>
<path d="M8.72016 11.0068C8.41065 11.0963 8.23009 11.4347 8.31484 11.7615C8.3996 12.0883 8.72016 12.2789 9.02967 12.1894C9.33918 12.0999 9.5197 11.7615 9.43494 11.4347C9.36128 11.1507 9.11074 10.9718 8.84543 10.9874C8.80491 10.9874 8.76067 10.9951 8.72016 11.0068Z" fill="#18614D"/>
<path d="M40.5846 9.00315C40.5846 9.00315 41.1594 9.24823 41.4947 9.68395C41.83 10.1196 41.9332 10.5553 41.9332 10.5553C41.9332 10.5553 41.3989 10.8121 40.0798 9.29878C40.0798 9.29878 40.1756 11.0027 41.2589 11.808C42.3421 12.6133 43.7791 12.8273 43.7791 12.8273C43.7791 12.8273 43.4291 10.925 42.7253 10.073C42.0216 9.21712 41.3289 9.11985 41.2294 9.08481C41.1299 9.04592 40.5846 9.00704 40.5846 9.00704V9.00315Z" fill="#18614D"/>
<path d="M37.9171 7.33828C37.7808 7.74289 37.9797 8.18634 38.3629 8.33031C38.7461 8.47424 39.1662 8.26416 39.3025 7.8596C39.4388 7.45499 39.2399 7.01149 38.8567 6.86756C38.7609 6.83256 38.6651 6.81696 38.5729 6.82474C38.2855 6.84034 38.0202 7.03482 37.9171 7.34217V7.33828Z" fill="#18614D"/>
<path d="M40.2866 8.22911C40.6698 8.37304 41.0899 8.16295 41.2262 7.75839C41.3625 7.35378 41.1636 6.91028 40.7803 6.76636C40.6845 6.73136 40.5887 6.7158 40.4966 6.72358C40.2092 6.73914 39.9439 6.93362 39.8408 7.24096C39.7044 7.64557 39.9034 8.08907 40.2866 8.233V8.22911Z" fill="#18614D"/>
<path d="M39.0853 8.97218C38.9895 8.93713 38.8937 8.92158 38.8016 8.92936C38.5142 8.94491 38.2489 9.13944 38.1457 9.44679C38.0094 9.85135 38.2083 10.2948 38.5915 10.4388C38.9748 10.5827 39.3948 10.3727 39.5311 9.96806C39.6674 9.56349 39.4685 9.12 39.0853 8.97607V8.97218Z" fill="#18614D"/>
<path d="M39.343 41.1644C39.3173 41.2344 39.2841 41.6078 39.2841 41.6078C39.2841 41.6078 39.4462 41.211 39.7188 40.9854C39.9952 40.7597 40.2678 40.6936 40.2678 40.6936C40.2678 40.6936 40.4189 41.0671 39.4609 41.9619C39.4609 41.9619 40.5221 41.919 41.038 41.176C41.5538 40.4368 41.7049 39.4409 41.7049 39.4409C41.7049 39.4409 40.5184 39.6588 39.9768 40.1373C39.4352 40.6158 39.3651 41.0943 39.3393 41.1605L39.343 41.1644Z" fill="#18614D"/>
<path d="M38.5031 42.2536C38.4294 42.2108 38.352 42.1952 38.2746 42.1991C38.131 42.2069 37.9983 42.2886 37.9209 42.4325C37.8067 42.6504 37.8841 42.9227 38.0904 43.0433C38.2967 43.1639 38.5547 43.0822 38.6689 42.8644C38.7831 42.6465 38.7057 42.3742 38.4994 42.2536H38.5031Z" fill="#18614D"/>
<path d="M38.6244 41.0863C38.5507 41.0435 38.4733 41.028 38.3996 41.0319C38.2559 41.0396 38.1196 41.1213 38.0459 41.2653C37.9317 41.4831 38.0091 41.7554 38.2154 41.876C38.4217 41.9966 38.6796 41.915 38.7938 41.6971C38.9081 41.4792 38.8307 41.2069 38.6244 41.0863Z" fill="#18614D"/>
<path d="M39.6602 42.3119C39.5902 42.2692 39.5091 42.2536 39.4318 42.2574C39.288 42.2653 39.1517 42.3469 39.078 42.4909C38.9638 42.7087 39.0412 42.9811 39.2475 43.1017C39.4539 43.2223 39.7118 43.1405 39.826 42.9227C39.9402 42.7048 39.8629 42.4325 39.6565 42.3119H39.6602Z" fill="#18614D"/>
<path d="M10.8867 23.8603C10.8056 23.8253 10.7246 23.8097 10.6435 23.8175C10.4298 23.8292 10.2345 23.9653 10.1498 24.1871C10.0319 24.4944 10.1682 24.8407 10.4593 24.969C10.7504 25.0935 11.0783 24.9496 11.1999 24.6422C11.3178 24.3349 11.1815 23.9887 10.8904 23.8603H10.8867Z" fill="#18614D"/>
<path d="M10.8838 22.2962C10.8027 22.2611 10.7216 22.2456 10.6405 22.2533C10.4268 22.265 10.2315 22.4012 10.1468 22.6229C10.0289 22.9302 10.1653 23.2765 10.4563 23.4049C10.7474 23.5293 11.0754 23.3854 11.197 23.0781C11.3149 22.7708 11.1785 22.4245 10.8874 22.2962H10.8838Z" fill="#18614D"/>
<path d="M12.1845 23.7084C11.9708 23.7201 11.7755 23.8563 11.6908 24.078C11.5729 24.3854 11.7092 24.7316 12.0003 24.86C12.2914 24.9844 12.6193 24.8405 12.7409 24.5332C12.8588 24.2258 12.7225 23.8796 12.4314 23.7512C12.3503 23.7162 12.2693 23.7007 12.1882 23.7084H12.1845Z" fill="#18614D"/>
<path d="M13.8311 22.421C14.4575 21.5729 14.6675 20.4175 14.6675 20.4175C14.6675 20.4175 13.271 20.6314 12.6225 21.1722C11.974 21.7129 11.8782 22.2692 11.8488 22.347C11.8193 22.4249 11.7677 22.8645 11.7677 22.8645C11.7677 22.8645 11.9667 22.4093 12.2946 22.1525C12.6225 21.8958 12.9468 21.8296 12.9468 21.8296C12.9468 21.8296 13.1126 22.2731 11.963 23.2846C11.963 23.2846 13.2047 23.269 13.8311 22.421Z" fill="#18614D"/>
<path d="M7.1471 26.4083C7.30925 26.7467 7.69978 26.879 8.02034 26.7078C8.3409 26.5366 8.46617 26.1243 8.30403 25.7858C8.18244 25.5369 7.93927 25.3968 7.69242 25.4123C7.60398 25.4162 7.51554 25.4396 7.43079 25.4863C7.11023 25.6575 6.985 26.0698 7.1471 26.4083Z" fill="#18614D"/>
<path d="M5.86084 25.2452C6.02298 25.5836 6.41356 25.7159 6.73412 25.5447C7.05468 25.3735 7.17995 24.9612 7.01781 24.6227C6.89991 24.3737 6.65305 24.2337 6.4062 24.2492C6.31776 24.2531 6.22932 24.2765 6.14457 24.3232C5.82401 24.4943 5.69874 24.9067 5.86084 25.2452Z" fill="#18614D"/>
<path d="M9.08467 25.222C9.40523 25.0508 9.53054 24.6384 9.36839 24.3C9.24681 24.051 9.00364 23.9109 8.75678 23.9265C8.66835 23.9304 8.57991 23.9537 8.49515 24.0004C8.17459 24.1716 8.04932 24.5839 8.21142 24.9224C8.37357 25.2608 8.76411 25.3931 9.08467 25.222Z" fill="#18614D"/>
<path d="M6.90718 23.4793C6.94774 23.5649 7.27198 23.9422 7.27198 23.9422C7.27198 23.9422 7.04722 23.417 7.08037 22.9269C7.11725 22.4367 7.30144 22.0904 7.30144 22.0904C7.30144 22.0904 7.78783 22.2694 7.76201 24.0784C7.76201 24.0784 8.67581 22.9308 8.44737 21.7209C8.21893 20.5149 7.42303 19.4567 7.42303 19.4567C7.42303 19.4567 6.55715 20.8961 6.51664 21.8921C6.47613 22.8879 6.86298 23.3937 6.9035 23.4793H6.90718Z" fill="#18614D"/>
<path d="M8.94169 37.5463C9.25488 37.7292 9.6491 37.6047 9.8223 37.274C9.99545 36.9433 9.87754 36.527 9.56439 36.3442C9.45386 36.282 9.33591 36.2547 9.22169 36.2625C9.0043 36.2742 8.79796 36.4026 8.68374 36.6204C8.51059 36.9511 8.6285 37.3674 8.94169 37.5502V37.5463Z" fill="#18614D"/>
<path d="M7.53787 36.0718C7.32048 36.0835 7.11414 36.2119 6.99992 36.4297C6.82673 36.7604 6.94468 37.1766 7.25787 37.3595C7.57102 37.5423 7.96529 37.4178 8.13848 37.0871C8.31163 36.7565 8.19373 36.3402 7.88053 36.1574C7.76999 36.0952 7.65209 36.0679 7.53787 36.0757V36.0718Z" fill="#18614D"/>
<path d="M9.64124 34.4806C9.5307 34.4184 9.4128 34.3912 9.29858 34.3989C9.08119 34.4106 8.8749 34.539 8.76068 34.7568C8.58748 35.0875 8.70538 35.5038 9.01858 35.6867C9.33173 35.8695 9.72599 35.745 9.89919 35.4143C10.0723 35.0836 9.95443 34.6674 9.64124 34.4845V34.4806Z" fill="#18614D"/>
<path d="M7.72167 35.4377C7.72167 35.4377 7.2537 35.1421 7.02158 34.7142C6.78946 34.2862 6.75258 33.8933 6.75258 33.8933C6.75258 33.8933 7.25002 33.7494 8.20065 35.2549C8.20065 35.2549 8.34065 33.7611 7.50424 32.9013C6.66787 32.0416 5.44824 31.6486 5.44824 31.6486C5.44824 31.6486 5.50353 33.3526 6.00461 34.1967C6.50573 35.041 7.09524 35.2277 7.17631 35.2744C7.25738 35.321 7.72536 35.4377 7.72536 35.4377H7.72167Z" fill="#18614D"/>
<path d="M14.7488 43.8682C14.6272 43.876 14.5093 43.9383 14.4319 44.0511C14.2993 44.2494 14.3435 44.5218 14.5314 44.6618C14.7193 44.8019 14.9772 44.7552 15.1099 44.5568C15.2426 44.3584 15.1983 44.0861 15.0104 43.946C14.933 43.8877 14.8409 43.8604 14.7488 43.8682Z" fill="#18614D"/>
<path d="M13.6951 43.6151C13.5735 43.6229 13.4556 43.6851 13.3782 43.798C13.2456 43.9963 13.2898 44.2687 13.4777 44.4087C13.6656 44.5488 13.9235 44.5021 14.0562 44.3037C14.1888 44.1053 14.1446 43.833 13.9567 43.6929C13.8793 43.6345 13.7872 43.6073 13.6951 43.6151Z" fill="#18614D"/>
<path d="M14.9285 42.693C14.8069 42.7008 14.689 42.763 14.6116 42.8758C14.479 43.0743 14.5232 43.3465 14.7111 43.4866C14.899 43.6267 15.157 43.58 15.2896 43.3816C15.4222 43.1832 15.378 42.9108 15.1901 42.7708C15.1127 42.7125 15.0206 42.6852 14.9285 42.6891V42.693Z" fill="#18614D"/>
<path d="M12.7262 40.6469C12.7262 40.6469 12.6415 41.7323 12.8994 42.308C13.1573 42.8838 13.5184 43.0472 13.5663 43.0822C13.6142 43.1172 13.9016 43.23 13.9016 43.23C13.9016 43.23 13.6252 43.0044 13.5073 42.7165C13.3894 42.4286 13.3968 42.1758 13.3968 42.1758C13.3968 42.1758 13.721 42.1213 14.2185 43.1522C14.2185 43.1522 14.4101 42.2147 13.9422 41.6078C13.4705 40.997 12.7262 40.6508 12.7262 40.6508V40.6469Z" fill="#18614D"/>
<path d="M8.86749 34.2435C8.93379 32.2439 8.74222 30.3688 7.65527 28.7076C7.67369 28.766 7.68842 28.8243 7.71052 28.8827C8.25952 30.291 8.53956 31.7498 8.41061 33.2748C8.37374 33.695 8.58008 33.9478 8.86749 34.2435Z" fill="#18614D"/>
<path d="M6.21172 27.4898C4.96267 26.7662 3.40039 26.7195 3.40039 26.7195C3.40039 26.7195 3.99363 28.7074 4.84477 29.5322C5.69591 30.3569 6.44757 30.3725 6.5581 30.3997C6.66864 30.4269 7.25447 30.3997 7.25447 30.3997C7.25447 30.3997 6.61335 30.2091 6.2044 29.7889C5.7954 29.3649 5.63694 28.9136 5.63694 28.9136C5.63694 28.9136 6.17857 28.5713 7.76295 30.0224C7.76295 30.0224 7.46449 28.2134 6.21545 27.4898H6.21172Z" fill="#18614D"/>
<path d="M10.3378 28.1822C10.5994 27.2252 10.2052 25.5679 10.2052 25.5679C10.2052 25.5679 9.13663 26.3032 8.55448 27.373C7.97602 28.4429 8.49919 29.8395 8.49919 29.8395C9.01873 28.1122 9.53458 28.1083 9.53458 28.1083C9.53458 28.1083 9.6046 28.4973 9.49406 28.9758C9.3798 29.4544 9.00768 29.8784 9.00768 29.8784C9.00768 29.8784 9.42773 29.6294 9.49406 29.5633C9.56036 29.4932 10.0799 29.1431 10.3378 28.1861V28.1822Z" fill="#18614D"/>
<path d="M10.1172 38.5306C10.1467 38.5618 10.1724 38.6007 10.2019 38.6279C10.9536 39.3865 11.5468 40.2618 11.8858 41.3083C11.9779 41.5962 12.1842 41.7012 12.4569 41.8063C11.9447 40.4641 11.2963 39.2854 10.1172 38.5268V38.5306Z" fill="#18614D"/>
<path d="M9.85904 39.9855C9.94012 39.9699 10.3196 39.7715 10.3196 39.7715C10.3196 39.7715 9.84431 39.8454 9.45741 39.6937C9.07051 39.542 8.83839 39.293 8.83839 39.293C8.83839 39.293 9.10002 38.9001 10.548 39.363C10.548 39.363 9.84799 38.2621 8.81997 38.1726C8.66156 38.1571 8.5031 38.1571 8.34836 38.1649C7.49722 38.2115 6.75293 38.5344 6.75293 38.5344C6.75293 38.5344 7.6962 39.6626 8.48837 39.9427C9.28054 40.2228 9.78166 40.0011 9.85904 39.9855Z" fill="#18614D"/>
<path d="M11.565 38.5227C11.5908 38.4566 11.8339 38.0637 11.7381 37.3518C11.6423 36.6399 10.9239 35.6673 10.9239 35.6673C10.9239 35.6673 10.4227 36.4842 10.338 37.3712C10.2533 38.2582 10.9865 39.0168 10.9865 39.0168C10.8502 37.7174 11.1891 37.5541 11.1891 37.5541C11.1891 37.5541 11.3439 37.7875 11.4028 38.1415C11.4618 38.4916 11.3329 38.8885 11.3329 38.8885C11.3329 38.8885 11.5392 38.5928 11.565 38.5266V38.5227Z" fill="#18614D"/>
<path d="M35.8577 44.4903C35.6919 44.5643 35.6403 44.7043 35.5887 44.8832C36.3551 44.4903 37.0183 44.0157 37.4163 43.2105C37.3978 43.2299 37.3794 43.2493 37.361 43.2688C36.9483 43.794 36.4583 44.218 35.8577 44.4865V44.4903Z" fill="#18614D"/>
<path d="M36.5173 42.2068C36.3846 42.7358 36.5394 43.0549 36.5505 43.1055C36.5652 43.156 36.6942 43.3972 36.6942 43.3972C36.6942 43.3972 36.6315 43.0899 36.7052 42.8292C36.7789 42.5686 36.9152 42.4052 36.9152 42.4052C36.9152 42.4052 37.1585 42.5608 36.9447 43.5295C36.9447 43.5295 37.5638 43.0238 37.5711 42.3468C37.5785 41.6699 37.269 41.0086 37.269 41.0086C37.269 41.0086 36.6463 41.6738 36.5136 42.2029L36.5173 42.2068Z" fill="#18614D"/>
<path d="M1.24115 24.8017C1.21536 24.8017 1.18958 24.8056 1.1601 24.8095C0.581617 24.8834 0.773207 25.856 1.54329 26.9142C2.31336 27.9684 3.72456 28.124 3.72456 28.124C3.42242 28.0268 3.07975 27.5249 2.59339 26.3501C2.12913 25.2258 1.80121 24.7745 1.24115 24.8056V24.8017Z" fill="#18614D"/>
<path d="M0.223488 18.512C0.209675 18.489 0.198979 18.464 0.186304 18.4356C-0.0643756 17.8802 0.816146 17.5302 2.07493 17.6501C3.3306 17.7722 4.21082 18.9471 4.21082 18.9471C3.97122 18.7298 3.3863 18.693 2.18611 18.8885C1.03821 19.0767 0.501641 19.026 0.226598 18.51L0.223488 18.512Z" fill="#18614D"/>
<path d="M32.5597 2.76334C33.3409 3.47915 33.9009 4.40504 33.9746 4.78239C33.9267 4.43227 33.7057 3.00065 33.1235 2.12923C32.6371 1.40174 32.1065 0.969921 31.7676 0.989373C31.6422 0.997155 31.5428 1.06718 31.4838 1.20334C31.2517 1.74798 31.7123 1.99306 32.5561 2.76334H32.5597Z" fill="#18614D"/>
<path d="M35.814 3.42436C36.6098 3.6889 36.853 3.82506 37.0888 3.45548C37.3025 3.1248 36.3003 2.6074 35.7329 2.63852C35.6997 2.63852 35.6702 2.64241 35.6408 2.65019C34.0822 2.93418 34.1891 4.15184 34.1891 4.15184C34.447 3.3271 35.0181 3.15982 35.814 3.42436Z" fill="#18614D"/>
<path d="M5.16096 30.6487C4.84777 30.6643 4.3651 30.3142 3.53238 29.3766C2.8839 28.6491 2.46384 28.3068 2.05117 28.3302C1.93326 28.3379 1.81534 28.3729 1.69375 28.4352C1.17054 28.7114 1.66429 29.5595 2.72177 30.2792C3.78293 30.9989 5.16096 30.6449 5.16096 30.6449V30.6487Z" fill="#18614D"/>
<path d="M12.346 5.60313C14.1109 4.49053 14.7373 3.80584 14.4831 2.7399C14.3947 2.37422 14.1404 2.21083 13.7793 2.23027C13.1456 2.26529 12.1876 2.85272 11.2259 3.86031C9.71525 5.44754 9.76681 7.97621 9.76681 7.97621C9.85893 7.42378 10.5774 6.71187 12.346 5.59924V5.60313Z" fill="#18614D"/>
<path d="M17.8875 3.15622C19.8883 2.66215 20.6805 2.20699 20.7431 1.10993C20.7726 0.56529 20.3488 0.31631 19.6672 0.355213C19.0482 0.390226 18.2191 0.654767 17.3201 1.14105C15.4262 2.16809 14.752 4.59562 14.752 4.59562C14.9988 4.09767 15.8868 3.65028 17.8875 3.15233V3.15622Z" fill="#18614D"/>
<path d="M24.2916 1.74784C25.9423 1.98515 26.6644 1.88011 27.0108 1.07093C27.3129 0.370684 26.3292 -0.0689184 24.8553 0.00888742C24.7116 0.016668 24.5642 0.0283382 24.4095 0.0477898C22.6961 0.250084 21.5208 1.88011 21.5208 1.88011C21.8413 1.57667 22.6408 1.51054 24.2878 1.74395L24.2916 1.74784Z" fill="#18614D"/>
<path d="M6.15237 20.4213C5.6402 19.8884 5.44122 18.4957 5.62178 15.5663C5.80234 12.6369 5.56285 11.3765 4.24376 10.859C4.11111 10.8085 3.98583 10.7851 3.86792 10.7929C2.88414 10.8474 2.47147 12.8781 2.93205 15.5507C3.44421 18.5463 6.15237 20.4213 6.15237 20.4213ZM4.32112 13.5239C5.06173 13.8157 5.19805 14.5237 5.09488 16.1693C4.99171 17.8149 5.10593 18.6007 5.39334 18.8964C5.39334 18.8964 3.8716 17.8421 3.5842 16.1576C3.2968 14.4731 3.62105 13.2438 4.32112 13.52V13.5239Z" fill="#18614D"/>
<path d="M47.5271 25.0701C47.3941 25.0117 47.2688 24.9845 47.1439 24.9922C46.7496 25.0117 46.3624 25.3735 45.7879 26.1126C45.0325 27.0813 44.5829 27.4548 44.2734 27.4626C44.2734 27.4626 45.6406 27.7154 46.6314 26.9413C47.6227 26.1671 48.0503 25.3035 47.5271 25.0701Z" fill="#18614D"/>
<path d="M44.7266 18.55H44.7119C45.0176 18.5889 45.4268 19.009 46.0861 20.0595C46.7459 21.1059 47.1363 21.4716 47.7148 21.2849C48.26 21.1098 47.9173 20.2073 47.0074 19.3281C46.149 18.4994 44.8667 18.5422 44.7266 18.55Z" fill="#18614D"/>
<path d="M4.995 31.4307C4.995 31.4307 3.77908 32.9596 3.967 34.7258C4.15491 36.492 4.82549 37.6124 5.44819 37.1183C6.10405 36.597 6.03771 35.8462 5.47029 34.2395C4.90288 32.6328 4.79234 31.8198 4.995 31.4307Z" fill="#18614D"/>
<path d="M15.8094 39.3748C15.3414 38.1376 15.2383 37.5074 15.3894 37.204C15.3894 37.204 14.4719 38.4178 14.6524 39.7833C14.8293 41.1487 15.371 42.0085 15.8426 41.6117C16.34 41.1915 16.2773 40.6119 15.8094 39.3786V39.3748Z" fill="#18614D"/>
<path d="M12.9578 30.8472C12.9209 32.5939 13.4368 33.7805 14.1037 33.3837C14.8074 32.9635 14.8369 32.2244 14.4832 30.5788C14.1295 28.9332 14.1258 28.124 14.369 27.7739C14.369 27.7739 12.9909 29.0966 12.9541 30.8433L12.9578 30.8472Z" fill="#18614D"/>
<path d="M16.3182 41.3315C16.2813 41.561 16.0971 42.8098 16.3219 43.5373C16.5724 44.3387 16.9888 44.7939 17.232 44.4982C17.4899 44.1869 17.3904 43.8446 16.974 43.156C16.5835 42.5024 16.2924 41.596 16.3145 41.3354L16.3182 41.3315Z" fill="#18614D"/>
<path d="M25.2199 15.076C25.102 14.9982 25.0062 14.9593 24.9325 14.9632C24.8109 14.971 24.7483 15.0877 24.7336 15.325C24.7152 15.679 24.7189 16.0369 24.7299 16.4026C24.7373 16.7255 25.0689 16.9278 25.3342 16.7683C25.5847 16.6205 25.8242 16.4804 26.0563 16.3248C26.3032 16.1614 26.2701 15.9202 26.0711 15.7413C25.8021 15.5001 25.5147 15.2744 25.2163 15.0721L25.2199 15.076Z" fill="#18614D"/>
<path d="M30.8285 16.1768C31.0974 16.3013 31.2633 16.134 31.289 15.8578C31.3259 15.4882 31.3407 15.1108 31.3296 14.7374C31.3222 14.4767 31.2522 14.3484 31.1085 14.3561C31.0422 14.3561 30.9611 14.395 30.8579 14.4573C30.5706 14.644 30.2942 14.8502 30.0142 15.0642C29.7673 15.2548 29.7968 15.6555 30.0695 15.7994C30.3274 15.9356 30.5742 16.064 30.8248 16.1768H30.8285Z" fill="#18614D"/>
<path d="M33.54 20.0672C33.2563 19.8766 32.9578 19.7093 32.6557 19.542C32.5894 19.5032 32.5157 19.4915 32.4494 19.4915C32.2467 19.5032 32.0625 19.6821 32.0625 19.9233C32.0625 20.2267 32.0625 20.5185 32.0772 20.8064C32.092 21.1137 32.3057 21.1993 32.5489 21.1021C32.8768 20.9698 33.2011 20.8142 33.5106 20.6352C33.8274 20.4524 33.8459 20.2734 33.5364 20.0672H33.54Z" fill="#18614D"/>
<path d="M22.0513 12.1583C22.3166 13.1932 22.7108 14.1929 22.9983 15.2239C23.0388 15.364 23.072 15.5118 23.1051 15.6557L23.8604 18.6979C23.9526 19.0714 24.4684 19.0441 24.5163 18.6629C24.5347 18.515 24.5384 18.3517 24.5237 18.1727C24.461 17.3986 24.3173 16.6361 24.2215 15.8658C24.1626 15.3912 24.1037 14.9127 24.0963 14.438C24.0889 13.9634 24.2731 13.8467 24.6969 14.0062C24.8148 14.049 24.9253 14.1113 25.0321 14.1774C26.167 14.8971 26.6866 15.255 27.663 15.644C28.1714 15.8463 28.7831 15.8424 29.4316 15.0916C30.01 14.4186 30.5664 13.73 31.1523 13.0609C31.2186 12.987 31.2959 12.9247 31.3844 12.8547C31.5465 12.7341 31.7676 12.8275 31.8081 13.0336C31.8449 13.2398 31.8781 13.4188 31.8781 13.5977C31.8708 14.7104 31.845 15.8269 31.8118 16.9395C31.7823 17.9237 32.1139 18.5501 32.9982 18.8496C33.6062 19.0558 34.1699 19.048 34.7705 19.2776C35.4706 19.546 35.4816 19.6627 34.9621 20.1957C34.8921 20.2696 34.8184 20.3357 34.7484 20.4096C34.1663 21.0048 33.5546 21.5728 33.0093 22.1992C33.0093 22.1992 33.0056 22.207 33.0019 22.207C32.7772 22.4676 33.094 22.8566 33.3778 22.6699L35.0137 21.6001C35.1316 21.5145 35.2532 21.4367 35.3785 21.3627C36.2628 20.8298 37.1839 20.3669 38.0866 19.865C38.3446 19.7211 38.5988 19.5538 38.8236 19.3554C39.0999 19.1142 39.0594 18.9119 38.713 18.8107C38.3704 18.7096 38.0167 18.6512 37.6666 18.5929C36.4912 18.3983 35.3085 18.2466 34.1368 18.0171C33.3409 17.8615 33.1788 17.6553 33.0903 16.8033C33.0093 15.9942 32.9393 15.1772 32.9503 14.3603C32.9651 12.9092 33.0498 11.462 33.0867 10.0109C33.0867 9.91366 33.0683 9.8164 33.0424 9.71914C32.9909 9.53627 32.744 9.44295 32.5561 9.53627C32.464 9.58299 32.2724 9.80862 32.2171 9.8864C31.6091 10.7189 31.2591 11.2324 30.6585 12.0689C30.2053 12.6991 29.7889 13.3604 29.2989 13.9595C29.1626 14.1268 28.7646 14.582 28.3446 14.6131C27.5266 14.6754 25.9938 13.9634 25.0432 12.7769C24.2473 11.7888 23.7831 11.2519 22.9577 10.291C22.8656 10.1821 22.5487 9.72691 22.2503 9.63354C22.1766 9.61021 22.1103 9.60243 22.055 9.60632C21.7344 9.62187 21.6608 10.0187 21.7234 10.4661C21.786 11.1586 21.8929 11.497 22.0661 12.1622L22.0513 12.1583Z" fill="#18614D"/>
<path d="M6.49162 14.6753C6.50267 14.7998 6.68323 16.7645 8.16071 18.6629C8.91237 19.6277 9.99932 20.573 11.569 21.2499C11.8822 21.3861 12.2396 21.2266 12.3685 20.8959C12.4975 20.5652 12.3464 20.184 12.0332 20.0517C8.09806 18.3517 7.72962 14.7259 7.71489 14.5664C7.68542 14.2124 7.38696 13.9479 7.05167 13.979C6.71269 14.0101 6.46211 14.3252 6.49162 14.6792V14.6753Z" fill="#18614D"/>
<path d="M9.38745 17.6706C9.95119 18.3942 10.7249 18.7676 11.344 18.6821C11.3882 18.7326 11.5208 18.791 11.5614 18.8182C11.8856 19.0361 12.2283 19.2384 12.6078 19.3512C13.0794 19.4912 13.68 19.4912 14.1222 19.1722C14.3948 18.9738 14.767 18.6782 14.579 18.2464C14.4648 17.9818 14.2437 17.8456 14.0669 17.7717C14.1111 17.7445 14.159 17.7173 14.1995 17.6861C14.2658 17.6395 14.3285 17.5928 14.3911 17.5422C14.5275 17.4255 14.6048 17.2349 14.6417 17.0559C14.7412 16.5891 14.6159 16.0872 14.4611 15.6515C14.2474 15.068 13.9269 14.5311 13.5547 14.0526C12.4715 12.6638 11.075 11.983 10.4376 12.5393C10.4376 12.5393 9.53482 13.224 8.83846 15.4142C8.62107 16.0444 8.81636 16.9314 9.39114 17.6706H9.38745ZM13.3263 18.1646C13.3963 18.1296 13.4663 18.0985 13.5363 18.0635C13.6653 18.0985 13.9269 18.1841 14.0559 18.3786C14.2106 18.6081 13.8642 18.9194 13.6616 18.9816C13.4479 19.0439 13.2857 19.0633 12.9873 18.9738C12.7478 18.9038 12.5341 18.7754 12.3278 18.6392C12.2983 18.6198 12.1914 18.5731 12.1804 18.5381C12.6704 18.4331 12.8657 18.3903 13.3226 18.1724L13.3263 18.1646Z" fill="#18614D"/>
<path d="M36.9741 32.8002C37.2173 32.7029 37.339 32.4189 37.2468 32.1622C36.1046 28.9527 37.8363 26.848 37.9137 26.7546C38.0869 26.5524 38.0721 26.2411 37.8805 26.0544C37.689 25.8716 37.3905 25.8871 37.2173 26.0894C37.1584 26.1594 36.2078 27.2876 35.9683 29.1511C35.8467 30.0964 35.9093 31.2324 36.3662 32.5123C36.4583 32.769 36.7273 32.8974 36.9705 32.8002H36.9741Z" fill="#18614D"/>
<path d="M40.1941 32.1504C40.4926 31.9675 40.6952 31.633 40.8426 31.314C41.0416 30.8861 41.1595 30.4153 41.2184 29.9446C41.3916 28.5791 41.0268 27.4004 40.4005 27.3109C40.4005 27.3109 39.5677 27.1319 38.0423 27.8594C37.5965 28.0578 37.2243 28.6336 37.1322 29.3572C37.0401 30.0691 37.2464 30.7188 37.6112 31.0417C37.6112 31.0961 37.6444 31.2051 37.6518 31.244C37.707 31.5513 37.777 31.8547 37.9134 32.1387C38.0829 32.4927 38.396 32.8468 38.7976 32.944C39.0445 33.0024 39.3946 33.0685 39.5272 32.7339C39.6083 32.5277 39.5678 32.3294 39.5125 32.1815C39.5493 32.1932 39.5899 32.2048 39.6267 32.2165C39.6857 32.2321 39.7446 32.2438 39.8036 32.2554C39.9362 32.2749 40.0762 32.2204 40.1905 32.1504H40.1941ZM39.1882 32.4927C39.1477 32.7028 38.8014 32.66 38.665 32.5744C38.5213 32.4811 38.4292 32.3955 38.3187 32.1737C38.2339 31.9948 38.186 31.8003 38.1528 31.6096C38.1491 31.5824 38.1197 31.4968 38.1307 31.4696C38.4439 31.7069 38.5655 31.8003 38.9193 31.9559C38.9745 31.9792 39.0298 32.0026 39.085 32.0259C39.133 32.1232 39.2214 32.3216 39.1882 32.4966V32.4927Z" fill="#18614D"/>
<path d="M34.5385 43.9614C33.4515 45.1363 32.2356 44.7667 32.184 44.7512C32.0661 44.7122 31.9408 44.7823 31.904 44.9068C31.8671 45.0313 31.9335 45.1635 32.0514 45.2024C32.0919 45.2141 32.7478 45.4203 33.562 45.1519C33.9747 45.0157 34.4279 44.759 34.8627 44.2882C34.9511 44.1949 34.9475 44.0432 34.8627 43.9537C34.7743 43.8603 34.6306 43.8642 34.5458 43.9537L34.5385 43.9614Z" fill="#18614D"/>
<path d="M32.6108 44.4711C32.784 44.6345 33.0935 44.689 33.4104 44.5839C33.7199 44.4828 33.9446 44.2571 34.0035 44.0237C34.0256 44.0159 34.0625 43.977 34.0773 43.9653C34.1915 43.8797 34.302 43.7864 34.3904 43.6658C34.501 43.518 34.5821 43.3001 34.5415 43.0978C34.5157 42.9733 34.4715 42.7983 34.3057 42.8061C34.2062 42.8099 34.1325 42.8722 34.0809 42.9228C34.0809 42.9033 34.0736 42.8839 34.0699 42.8644C34.0625 42.8333 34.0588 42.8061 34.0477 42.7749C34.0293 42.7088 33.9778 42.6582 33.9262 42.6193C33.7898 42.522 33.613 42.4948 33.4509 42.4909C33.2335 42.487 33.0198 42.5259 32.8134 42.596C32.2166 42.7905 31.8076 43.1989 31.8997 43.5024C31.8997 43.5024 31.9954 43.9187 32.6034 44.4711H32.6108ZM34.1104 43.2418C34.1104 43.2107 34.1104 43.1834 34.1067 43.1523C34.1362 43.1095 34.1988 43.0278 34.2799 43.0084C34.3757 42.985 34.4273 43.1523 34.4199 43.2301C34.4125 43.3157 34.3941 43.374 34.3241 43.4713C34.2688 43.5452 34.1988 43.6074 34.1251 43.6619C34.1141 43.6697 34.0846 43.7008 34.0736 43.7008C34.1067 43.5102 34.1215 43.4363 34.1141 43.2418H34.1104Z" fill="#18614D"/>
<path d="M10.9387 43.3855C9.28068 43.1444 8.80166 41.8022 8.78324 41.74C8.73905 41.6077 8.60268 41.5377 8.47373 41.5843C8.34846 41.631 8.28212 41.775 8.32632 41.9111C8.3411 41.9578 8.59532 42.6892 9.33224 43.2572C9.70809 43.549 10.2092 43.794 10.8724 43.8913C11.0051 43.9107 11.1267 43.8135 11.1451 43.6734C11.1635 43.5334 11.0714 43.405 10.9387 43.3855Z" fill="#18614D"/>
<path d="M11.5026 42.3079C11.5026 42.3079 11.532 42.2767 11.5468 42.2612C11.5689 42.2379 11.5873 42.2106 11.6057 42.1873C11.6462 42.1289 11.6573 42.0472 11.6573 41.9772C11.6499 41.7905 11.5578 41.6115 11.4583 41.4598C11.322 41.2614 11.1525 41.0863 10.9646 40.9424C10.423 40.5261 9.82605 40.4094 9.63445 40.6895C9.63445 40.6895 9.35444 41.0436 9.29179 41.95C9.26601 42.2106 9.42442 42.5296 9.71184 42.7553C9.99557 42.9731 10.3235 43.0354 10.5519 42.9381C10.574 42.9537 10.6293 42.9614 10.6477 42.9692C10.7914 43.0198 10.9425 43.0587 11.0972 43.0626C11.2889 43.0665 11.5173 43.0043 11.6573 42.8369C11.742 42.7319 11.8563 42.5802 11.7457 42.4363C11.6757 42.3468 11.5799 42.3196 11.5062 42.3079H11.5026ZM11.462 42.8097C11.3883 42.8564 11.3257 42.8798 11.2041 42.8759C11.1046 42.8759 11.0125 42.8486 10.9204 42.8175C10.9056 42.8136 10.8614 42.8058 10.8541 42.7942C11.0309 42.7047 11.1009 42.6658 11.2557 42.5374C11.2778 42.518 11.3036 42.4985 11.3257 42.4752C11.3772 42.4752 11.4841 42.4829 11.5541 42.5413C11.6352 42.6113 11.532 42.7669 11.4583 42.8097H11.462Z" fill="#18614D"/>
<path d="M40.2938 12.9131C40.2201 12.7031 40.0211 12.5786 39.7853 12.5864C39.041 12.6175 37.7588 12.7264 37.5303 14.9283C37.5156 15.0878 37.5119 15.2473 37.5119 15.4068C37.5119 15.7258 37.4051 16.5545 36.4029 17.1263C36.355 17.1535 36.366 17.2196 36.4176 17.2196C37.1177 17.2041 37.9136 16.9318 38.6468 16.4027C39.9917 15.4379 40.6659 13.9557 40.2938 12.9131Z" fill="#18614D"/>
<path d="M35.8022 12.1271C34.2584 13.2203 33.6209 15.0681 34.3763 16.2547C34.5347 16.4998 34.7374 16.7021 34.9769 16.8499C35.6106 17.2467 36.4655 17.0872 36.926 16.4414C37.3903 15.7917 37.2687 15.111 37.2687 15.111C36.8302 12.4227 38.8973 12.2516 39.6748 12.2788C39.7853 12.2827 39.8516 12.1427 39.7779 12.061C38.9378 11.1117 37.2319 11.1156 35.8022 12.131V12.1271Z" fill="#18614D"/>
<path d="M34.9817 22.9962C34.9338 23.1556 34.9964 23.3268 35.1402 23.4357C35.5934 23.7781 36.4039 24.3305 37.4909 23.1362C37.5683 23.0506 37.6383 22.9572 37.7083 22.8638C37.8483 22.6733 38.2683 22.2336 39.1121 22.3815C39.1527 22.3892 39.1748 22.3426 39.1453 22.3192C38.7252 21.9925 38.132 21.7668 37.4725 21.724C36.2603 21.6462 35.2175 22.1987 34.9854 22.9962H34.9817Z" fill="#18614D"/>
<path d="M34.9156 23.7511C35.0003 24.7198 36.0136 25.5407 37.2996 25.6302C38.685 25.7274 39.864 24.9416 39.9304 23.8757C39.9451 23.6539 39.9082 23.436 39.8309 23.2337C39.6282 22.693 39.0534 22.374 38.497 22.5374C37.9407 22.6969 37.7159 23.1598 37.7159 23.1598C36.8095 24.961 35.5125 24.0662 35.0667 23.6772C35.0041 23.6227 34.9009 23.6695 34.912 23.755L34.9156 23.7511Z" fill="#18614D"/>
<path d="M34.4129 35.7878C34.5713 35.4143 34.8181 34.7568 33.897 34.1344C33.8307 34.0916 33.7607 34.0527 33.6907 34.0138C33.5507 33.9399 33.208 33.6948 33.1859 33.0685C33.1859 33.0373 33.1527 33.0296 33.1417 33.0529C32.9869 33.4031 32.9243 33.8582 32.9869 34.3406C33.1048 35.2237 33.6059 35.9006 34.1512 35.959C34.2618 35.9706 34.3613 35.9006 34.4129 35.7839V35.7878Z" fill="#18614D"/>
<path d="M34.6488 35.9046C35.2642 35.71 35.6547 34.8659 35.5368 33.9283C35.4078 32.9168 34.7409 32.1738 34.0409 32.271C33.8972 32.2905 33.7608 32.3449 33.6393 32.4305C33.3187 32.6523 33.1897 33.1074 33.3703 33.4887C33.5508 33.8699 33.8787 33.9633 33.8787 33.9633C35.1684 34.3679 34.7704 35.4261 34.5788 35.8034C34.553 35.8579 34.5973 35.924 34.6525 35.9046H34.6488Z" fill="#18614D"/>
<path d="M33.8309 40.4019C33.7425 40.3902 33.6504 40.3863 33.5583 40.3824C33.3777 40.3747 32.9061 40.293 32.6003 39.6511C32.5855 39.62 32.5487 39.6278 32.5487 39.6589C32.5487 40.1024 32.6887 40.612 32.9724 41.0866C33.4957 41.9541 34.3284 42.4054 34.9289 42.1875C35.0505 42.1448 35.1242 42.0203 35.1242 41.8724C35.1206 41.3978 35.08 40.5848 33.8309 40.4019Z" fill="#18614D"/>
<path d="M35.4519 39.3555C34.8587 38.3596 33.8196 37.9238 33.1305 38.379C32.9869 38.4724 32.8726 38.6007 32.7805 38.7486C32.5447 39.1415 32.6184 39.6862 32.9795 39.9896C33.3406 40.293 33.7312 40.2308 33.7312 40.2308C35.2676 40.0013 35.3266 41.3123 35.2971 41.8024C35.2934 41.8725 35.3708 41.9192 35.4187 41.8725C35.9751 41.3551 36.0009 40.2775 35.4482 39.3516L35.4519 39.3555Z" fill="#18614D"/>
<path d="M43.6948 33.1073C43.1568 33.4264 42.2504 34.0177 42.8694 35.7294C42.9136 35.8539 42.9689 35.9706 43.0242 36.0873C43.1384 36.3246 43.3558 36.9743 42.8215 37.7952C42.7958 37.8341 42.8289 37.8807 42.8657 37.8574C43.3742 37.5656 43.8643 37.0482 44.218 36.3713C44.8628 35.1264 44.8333 33.7648 44.1848 33.1463C44.0559 33.0218 43.8643 33.0062 43.6948 33.1073Z" fill="#18614D"/>
<path d="M42.7401 35.9705C41.4578 34.1654 42.9206 33.2162 43.5028 32.9283C43.5875 32.8855 43.5875 32.7571 43.5028 32.726C42.5448 32.3603 41.2883 33.0411 40.5957 34.3599C39.8477 35.776 40.0356 37.3943 41.0157 37.9701C41.2184 38.0907 41.4394 38.153 41.6716 38.1685C42.2795 38.2074 42.8543 37.7522 42.9612 37.0909C43.0717 36.4295 42.7401 35.9744 42.7401 35.9744V35.9705Z" fill="#18614D"/>
<path d="M43.3519 30.279C43.2525 30.2985 43.153 30.3258 43.0535 30.353C42.8545 30.4114 42.3276 30.493 41.7897 29.9095C41.7639 29.8823 41.7234 29.9017 41.7344 29.9367C41.8745 30.4152 42.1876 30.9093 42.6482 31.3178C43.4883 32.0608 44.5273 32.2515 45.1021 31.8002C45.2162 31.7107 45.257 31.5512 45.209 31.3917C45.0545 30.886 44.7484 30.0262 43.3519 30.279Z" fill="#18614D"/>
<path d="M41.9513 28.3576C41.8297 28.5093 41.745 28.6883 41.6971 28.8789C41.5681 29.3886 41.826 29.9449 42.3087 30.1394C42.7951 30.3378 43.193 30.1277 43.193 30.1277C44.7663 29.3302 45.2526 30.7151 45.3815 31.2559C45.3999 31.3337 45.4996 31.3531 45.5365 31.287C45.9676 30.5323 45.6469 29.3652 44.759 28.5716C43.801 27.7157 42.5482 27.6185 41.955 28.3537L41.9513 28.3576Z" fill="#18614D"/>
<path d="M16.841 12.6952C16.6678 12.843 16.6126 13.092 16.6973 13.3371C16.9699 14.1151 17.4932 15.4301 19.6486 14.9477C19.8034 14.9126 19.9545 14.8621 20.1055 14.8115C20.4077 14.7065 21.2257 14.547 22.0952 15.4184C22.1357 15.4573 22.1984 15.4262 22.18 15.3717C21.9368 14.6403 21.4172 13.8895 20.6767 13.2865C19.3244 12.1856 17.7032 11.9599 16.8373 12.6952H16.841Z" fill="#18614D"/>
<path d="M16.2035 13.516C15.5808 14.7142 16.1445 16.5115 17.5705 17.6864C19.1069 18.9546 21.0634 19.0247 21.9404 17.842C22.1209 17.5969 22.2425 17.3129 22.3088 17.0134C22.4783 16.2159 22.0472 15.3678 21.2808 15.0916C20.5144 14.8154 19.9101 15.1655 19.9101 15.1655C17.5115 16.5077 16.6714 14.3835 16.443 13.5549C16.4098 13.4343 16.255 13.411 16.2035 13.516Z" fill="#18614D"/>
<path d="M30.3395 11.9559C30.8517 11.2518 31.2091 10.2598 31.2938 9.13935C31.4486 7.08917 30.6417 5.30745 29.4368 4.89117C29.1973 4.80947 28.932 4.91062 28.7662 5.14792C28.232 5.90654 27.3697 7.25648 29.1494 9.13546C29.2784 9.27166 29.4184 9.39225 29.5584 9.51285C29.8421 9.75404 30.4943 10.4815 30.2511 11.9015C30.24 11.9676 30.3064 12.0104 30.3432 11.9598L30.3395 11.9559Z" fill="#18614D"/>
<path d="M25.3694 8.7428C25.1778 11.0847 26.3347 13.1038 27.956 13.2516C28.2913 13.2828 28.6229 13.2283 28.9361 13.1038C29.7651 12.777 30.2625 11.8122 30.0378 10.8707C29.8093 9.92543 29.1166 9.53253 29.1166 9.53253C26.4084 7.94529 27.8049 5.77841 28.4128 5.03145C28.5013 4.92252 28.4276 4.75526 28.2986 4.76304C26.8248 4.87975 25.5499 6.56809 25.3731 8.7428H25.3694Z" fill="#18614D"/>
<path d="M43.5555 20.1976L43.6991 20.7161C43.8231 20.2686 44.1545 19.9187 44.5783 19.7878C44.1545 19.657 43.8231 19.3071 43.6991 18.8595L43.5908 19.2507C43.5343 19.4545 43.3834 19.6138 43.1904 19.6734C43.0705 19.7105 42.9464 19.7308 42.8218 19.7406C41.2915 19.8607 40.3339 20.61 40.3339 21.5164C40.3339 21.7133 40.062 21.9713 39.9271 21.8353C39.6941 21.6007 39.5581 21.3478 39.5581 21.0843C39.5581 20.0774 41.0746 19.2796 42.7942 19.0139C42.8456 19.0059 42.8443 18.9235 42.7923 18.9235C40.5555 18.9235 39.0605 19.8556 39.0605 21.0843C39.0605 22.3129 40.8738 23.309 43.1106 23.309C43.1865 23.309 43.192 23.1875 43.1177 23.1712C41.8842 22.9008 40.8493 22.2617 40.8493 21.5164C40.8493 20.8251 41.7394 20.2253 42.8525 19.9262C43.0034 19.8857 43.1617 19.8934 43.3111 19.9395C43.4289 19.9759 43.521 20.0732 43.5555 20.1976Z" fill="#18614D"/>
<path d="M41.9634 24.8836L41.8198 24.3651C41.6958 24.8125 41.3644 25.1625 40.9406 25.2934C41.3644 25.4242 41.6958 25.7741 41.8198 26.2217L41.9281 25.8305C41.9846 25.6267 42.1355 25.4674 42.3285 25.4078C42.4484 25.3707 42.5725 25.3504 42.6971 25.3406C44.2274 25.2205 45.1852 24.4712 45.1852 23.5648C45.1852 23.3679 45.457 23.1099 45.5917 23.2458C45.8248 23.4805 45.9609 23.7333 45.9609 23.9969C45.9609 25.0038 44.4443 25.8016 42.7247 26.0673C42.6733 26.0753 42.6746 26.1576 42.7266 26.1576C44.9633 26.1576 46.4586 25.2256 46.4586 23.9969C46.4586 22.7683 44.6451 21.7722 42.4083 21.7722C42.3324 21.7722 42.327 21.8937 42.4012 21.91C43.6347 22.1804 44.6696 22.8195 44.6696 23.5648C44.6696 24.256 43.7795 24.8558 42.6664 25.155C42.5155 25.1955 42.3572 25.1878 42.2078 25.1417C42.09 25.1053 41.9979 25.008 41.9634 24.8836Z" fill="#18614D"/>
<path d="M23.1242 8.66986L22.5296 8.65635C22.9559 8.95805 23.2071 9.46832 23.196 10.01C23.4818 9.55994 23.9651 9.2947 24.4781 9.30642L24.1055 9.0427C23.9114 8.90527 23.797 8.6729 23.802 8.42625C23.8052 8.27303 23.8272 8.12066 23.8606 7.97151C24.2704 6.1391 23.8193 4.75635 22.868 4.43899C22.6613 4.37003 22.4858 3.96167 22.6757 3.85134C23.0036 3.66092 23.3165 3.59038 23.5932 3.68266C24.6498 4.03517 24.9562 6.08883 24.633 8.1936C24.6234 8.25657 24.7102 8.28384 24.7284 8.22304C25.5116 5.60607 25.0569 3.53075 23.7674 3.10056C22.4779 2.67037 20.7977 4.44308 20.0145 7.06C19.988 7.14873 20.1135 7.19772 20.1567 7.11653C20.8723 5.76812 21.9054 4.78101 22.6876 5.04198C23.413 5.28398 23.7309 6.53541 23.6551 7.94244C23.6448 8.13313 23.5813 8.31561 23.4806 8.47429C23.4012 8.59939 23.2668 8.67313 23.1242 8.66986Z" fill="#18614D"/>
<path d="M18.7633 5.16561L19.3578 5.17913C18.9316 4.87742 18.6804 4.36715 18.6914 3.82547C18.4057 4.27552 17.9224 4.54075 17.4094 4.52908L17.7819 4.79282C17.9761 4.9302 18.0905 5.16258 18.0854 5.40922C18.0823 5.56249 18.0602 5.71481 18.0269 5.86396C17.6171 7.69637 18.0681 9.07912 19.0194 9.39647C19.2262 9.46543 19.4017 9.87378 19.2117 9.98413C18.8839 10.1745 18.5709 10.2451 18.2943 10.1528C17.2376 9.80032 16.9313 7.74664 17.2545 5.64188C17.2641 5.5789 17.1773 5.55163 17.159 5.61243C16.3759 8.2294 16.8306 10.3047 18.1201 10.7349C19.4095 11.1651 21.0898 9.39239 21.873 6.77547C21.8995 6.68674 21.7739 6.63775 21.7308 6.71894C21.0152 8.06736 19.9821 9.05446 19.1999 8.79349C18.4744 8.5515 18.1566 7.30006 18.2324 5.89303C18.2427 5.70234 18.3062 5.51986 18.4069 5.36118C18.4863 5.23608 18.6207 5.16234 18.7633 5.16561Z" fill="#18614D"/>
<path d="M39.0544 35.8379L38.9544 36.2109C39.1914 35.9888 39.5191 35.9096 39.824 36.0007C39.6136 35.7505 39.5386 35.4044 39.6249 35.0826L39.4178 35.2767C39.3099 35.3778 39.1606 35.4139 39.0218 35.3724C38.9356 35.3466 38.8528 35.309 38.7736 35.2648C37.8002 34.7217 36.9477 34.7915 36.6203 35.3423C36.5492 35.462 36.2908 35.5093 36.2579 35.3723C36.201 35.136 36.2097 34.9276 36.3049 34.7674C36.6685 34.1555 37.8783 34.2812 39.0192 34.812C39.0534 34.8279 39.0823 34.7774 39.0507 34.7564C37.6914 33.8559 36.4463 33.8204 36.0026 34.567C35.5588 35.3137 36.3011 36.649 37.6604 37.5496C37.7065 37.5801 37.7537 37.5085 37.7144 37.4687C37.0625 36.8078 36.6643 36.0028 36.9335 35.5498C37.1831 35.1298 37.9407 35.1236 38.7252 35.39C38.8315 35.4261 38.925 35.4945 38.9991 35.5826C39.0576 35.6522 39.0784 35.7484 39.0544 35.8379Z" fill="#18614D"/>
<path d="M36.3947 38.0447L36.4947 37.6717C36.2578 37.8938 35.93 37.973 35.6251 37.8819C35.8354 38.1321 35.9105 38.4781 35.8241 38.8L36.0313 38.6059C36.1392 38.5047 36.2884 38.4687 36.4273 38.5102C36.5135 38.536 36.5963 38.5735 36.6755 38.6178C37.6489 39.1609 38.5014 39.0911 38.8288 38.5403C38.8999 38.4206 39.1583 38.3732 39.1912 38.5102C39.2481 38.7466 39.2394 38.955 39.1442 39.1152C38.7806 39.7271 37.5708 39.6014 36.4299 39.0705C36.3957 39.0547 36.3668 39.1052 36.3984 39.1262C37.7577 40.0267 39.0028 40.0622 39.4465 39.3155C39.8903 38.5689 39.1481 37.2335 37.7887 36.333C37.7427 36.3024 37.6954 36.374 37.7347 36.4138C38.3866 37.0748 38.7847 37.8798 38.5156 38.3327C38.2659 38.7528 37.5084 38.759 36.7239 38.4926C36.6176 38.4565 36.5241 38.3881 36.45 38.2999C36.3916 38.2304 36.3707 38.1341 36.3947 38.0447Z" fill="#18614D"/>
<path d="M28.9566 19.519C29.4012 19.519 29.7617 19.1384 29.7617 18.669C29.7617 18.1995 29.4012 17.8189 28.9566 17.8189C28.5119 17.8189 28.1515 18.1995 28.1515 18.669C28.1515 19.1384 28.5119 19.519 28.9566 19.519Z" fill="#18614D"/>
<path fill-rule="evenodd" clip-rule="evenodd" d="M28.7661 16.0019H29.1471C29.2865 16.0019 29.3994 16.1212 29.3994 16.2683V16.5837C29.3994 16.706 29.4792 16.8108 29.5879 16.853C29.635 16.8712 29.6811 16.8915 29.7262 16.9135C29.8314 16.965 29.958 16.9505 30.04 16.8639L30.2512 16.6408C30.3498 16.5368 30.5095 16.5368 30.608 16.6408L30.8775 16.9253C30.976 17.0293 30.976 17.198 30.8775 17.302L30.6662 17.5251C30.5842 17.6116 30.5704 17.7453 30.6191 17.8563C30.6401 17.904 30.6592 17.9527 30.6765 18.0023C30.7164 18.1172 30.8157 18.2014 30.9316 18.2014H31.2303C31.3696 18.2014 31.4826 18.3206 31.4826 18.4677V18.8701C31.4826 19.0172 31.3696 19.1364 31.2303 19.1364H30.9316C30.8157 19.1364 30.7164 19.2206 30.6765 19.3355C30.6592 19.3851 30.6401 19.4338 30.6191 19.4815C30.5704 19.5925 30.5842 19.7262 30.6662 19.8127L30.8775 20.0358C30.976 20.1398 30.976 20.3085 30.8775 20.4125L30.6081 20.697C30.5095 20.801 30.3498 20.801 30.2512 20.697L30.04 20.4739C29.958 20.3873 29.8314 20.3727 29.7262 20.4242C29.6811 20.4463 29.635 20.4665 29.5879 20.4848C29.4792 20.527 29.3994 20.6318 29.3994 20.7542V21.0695C29.3994 21.2166 29.2865 21.3359 29.1471 21.3359H28.7661C28.6267 21.3359 28.5138 21.2166 28.5138 21.0695V20.7542C28.5138 20.6318 28.4341 20.527 28.3253 20.4848C28.2783 20.4665 28.2321 20.4463 28.187 20.4242C28.0818 20.3727 27.9553 20.3873 27.8733 20.4739L27.662 20.697C27.5635 20.801 27.4037 20.801 27.3052 20.697L27.0358 20.4125C26.9373 20.3085 26.9373 20.1398 27.0358 20.0358L27.2471 19.8127C27.3291 19.7262 27.3428 19.5925 27.2941 19.4815C27.2732 19.4338 27.254 19.3851 27.2368 19.3355C27.1968 19.2206 27.0975 19.1364 26.9816 19.1364H26.6829C26.5436 19.1364 26.4307 19.0172 26.4307 18.8701V18.4677C26.4307 18.3206 26.5436 18.2014 26.6829 18.2014H26.9816C27.0975 18.2014 27.1968 18.1172 27.2368 18.0023C27.254 17.9527 27.2732 17.904 27.2941 17.8563C27.3428 17.7453 27.3291 17.6116 27.2471 17.5251L27.0358 17.302C26.9373 17.198 26.9373 17.0293 27.0358 16.9253L27.3052 16.6408C27.4037 16.5368 27.5635 16.5368 27.662 16.6408L27.8733 16.8639C27.9553 16.9505 28.0818 16.965 28.187 16.9135C28.2321 16.8915 28.2783 16.8712 28.3253 16.853C28.4341 16.8108 28.5138 16.706 28.5138 16.5837V16.2683C28.5138 16.1212 28.6267 16.0019 28.7661 16.0019ZM30.0414 18.1847C29.9222 17.8875 29.6967 17.6493 29.4152 17.5235C29.41 17.5212 29.4047 17.5189 29.3994 17.5166C29.2627 17.458 29.1132 17.4257 28.9566 17.4257C28.8 17.4257 28.6505 17.458 28.5138 17.5166C28.5085 17.5189 28.5033 17.5212 28.498 17.5235C28.2165 17.6493 27.991 17.8875 27.8718 18.1847C27.8696 18.1903 27.8674 18.1958 27.8653 18.2014C27.8097 18.3457 27.7792 18.5035 27.7792 18.6689C27.7792 18.8343 27.8097 18.9921 27.8653 19.1364C27.8674 19.142 27.8696 19.1476 27.8718 19.1531C27.991 19.4503 28.2165 19.6885 28.498 19.8142C28.5033 19.8166 28.5085 19.8189 28.5138 19.8212C28.6505 19.8798 28.8 19.9121 28.9566 19.9121C29.1132 19.9121 29.2627 19.8798 29.3994 19.8212C29.4027 19.8197 29.406 19.8183 29.4093 19.8169C29.4112 19.816 29.4132 19.8151 29.4152 19.8142C29.6967 19.6885 29.9222 19.4503 30.0414 19.1531C30.0436 19.1476 30.0458 19.142 30.048 19.1364C30.1035 18.9921 30.1341 18.8343 30.1341 18.6689C30.1341 18.5035 30.1035 18.3457 30.048 18.2014C30.0458 18.1958 30.0436 18.1903 30.0414 18.1847Z" fill="#18614D"/>
<path d="M42.8979 16.7975C43.3425 16.7975 43.703 16.4169 43.703 15.9475C43.703 15.478 43.3425 15.0974 42.8979 15.0974C42.4532 15.0974 42.0928 15.478 42.0928 15.9475C42.0928 16.4169 42.4532 16.7975 42.8979 16.7975Z" fill="#18614D"/>
<path fill-rule="evenodd" clip-rule="evenodd" d="M42.7075 13.2804H43.0886C43.2279 13.2804 43.3409 13.3997 43.3409 13.5468V13.8622C43.3409 13.9846 43.4206 14.0894 43.5294 14.1315C43.5764 14.1498 43.6225 14.17 43.6677 14.1921C43.7728 14.2436 43.8994 14.229 43.9814 14.1424L44.1927 13.9193C44.2912 13.8153 44.451 13.8153 44.5495 13.9193L44.8189 14.2038C44.9175 14.3078 44.9175 14.4765 44.8189 14.5805L44.6076 14.8036C44.5257 14.8901 44.5118 15.0238 44.5606 15.1348C44.5815 15.1825 44.6007 15.2312 44.6179 15.2808C44.6579 15.3957 44.7571 15.4799 44.8731 15.4799H45.1717C45.311 15.4799 45.4241 15.5992 45.4241 15.7463V16.1485C45.4241 16.2957 45.311 16.4149 45.1717 16.4149H44.8731C44.7571 16.4149 44.6579 16.4991 44.6179 16.614C44.6007 16.6637 44.5815 16.7124 44.5606 16.76C44.5118 16.871 44.5257 17.0047 44.6076 17.0912L44.8189 17.3143C44.9175 17.4183 44.9175 17.587 44.8189 17.691L44.5495 17.9755C44.451 18.0795 44.2912 18.0795 44.1927 17.9755L43.9814 17.7524C43.8994 17.6658 43.7728 17.6513 43.6677 17.7027C43.6225 17.7248 43.5764 17.745 43.5294 17.7633C43.4206 17.8055 43.3409 17.9103 43.3409 18.0327V18.348C43.3409 18.4952 43.2279 18.6144 43.0886 18.6144H42.7075C42.5682 18.6144 42.4552 18.4951 42.4552 18.348V18.0327C42.4552 17.9103 42.3755 17.8055 42.2667 17.7633C42.2197 17.745 42.1736 17.7248 42.1284 17.7027C42.0233 17.6513 41.8967 17.6658 41.8147 17.7524L41.6034 17.9755C41.5049 18.0795 41.3452 18.0795 41.2467 17.9755L40.9772 17.691C40.8787 17.587 40.8787 17.4183 40.9772 17.3143L41.1885 17.0912C41.2705 17.0047 41.2843 16.871 41.2355 16.76C41.2146 16.7124 41.1955 16.6637 41.1782 16.614C41.1382 16.4991 41.039 16.4149 40.923 16.4149H40.6244C40.485 16.4149 40.3721 16.2957 40.3721 16.1485V15.7463C40.3721 15.5992 40.485 15.4799 40.6244 15.4799H40.923C41.039 15.4799 41.1382 15.3957 41.1782 15.2808C41.1955 15.2312 41.2146 15.1825 41.2355 15.1348C41.2843 15.0238 41.2705 14.8901 41.1885 14.8036L40.9772 14.5805C40.8787 14.4765 40.8787 14.3078 40.9772 14.2038L41.2467 13.9193C41.3452 13.8153 41.5049 13.8153 41.6034 13.9193L41.8147 14.1424C41.8967 14.229 42.0233 14.2435 42.1284 14.1921C42.1736 14.17 42.2197 14.1498 42.2667 14.1315C42.3755 14.0894 42.4552 13.9846 42.4552 13.8622V13.5468C42.4552 13.3997 42.5682 13.2804 42.7075 13.2804ZM43.9829 15.4632C43.8637 15.166 43.6382 14.9278 43.3566 14.802C43.3514 14.7997 43.3461 14.7974 43.3409 14.7952C43.2042 14.7365 43.0547 14.7042 42.8981 14.7042C42.7414 14.7042 42.592 14.7365 42.4552 14.7952C42.45 14.7974 42.4447 14.7997 42.4395 14.802C42.1579 14.9278 41.9324 15.166 41.8133 15.4632C41.811 15.4687 41.8089 15.4743 41.8067 15.4799C41.7512 15.6242 41.7206 15.782 41.7206 15.9474C41.7206 16.1128 41.7512 16.2706 41.8067 16.4149C41.8089 16.4205 41.811 16.4261 41.8133 16.4316C41.9324 16.7288 42.1579 16.967 42.4395 17.0928C42.4447 17.0951 42.45 17.0974 42.4552 17.0997C42.592 17.1583 42.7414 17.1906 42.8981 17.1906C43.0547 17.1906 43.2042 17.1583 43.3409 17.0997C43.3442 17.0983 43.3474 17.0969 43.3507 17.0954C43.3527 17.0945 43.3547 17.0936 43.3566 17.0928C43.6382 16.967 43.8637 16.7288 43.9829 16.4316C43.9851 16.4261 43.9873 16.4205 43.9894 16.4149C44.0449 16.2706 44.0755 16.1128 44.0755 15.9474C44.0755 15.782 44.0449 15.6242 43.9894 15.4799C43.9873 15.4743 43.9851 15.4687 43.9829 15.4632Z" fill="#18614D"/>
<path d="M3.25749 22.834C3.70213 22.834 4.06258 22.4534 4.06258 21.9839C4.06258 21.5145 3.70213 21.1339 3.25749 21.1339C2.81284 21.1339 2.45239 21.5145 2.45239 21.9839C2.45239 22.4534 2.81284 22.834 3.25749 22.834Z" fill="#18614D"/>
<path fill-rule="evenodd" clip-rule="evenodd" d="M3.0669 19.3169H3.44794C3.58727 19.3169 3.70022 19.4361 3.70022 19.5832V19.8986C3.70022 20.021 3.77994 20.1258 3.88875 20.168C3.93578 20.1862 3.9819 20.2064 4.02702 20.2285C4.13219 20.28 4.25878 20.2654 4.34075 20.1789L4.55206 19.9558C4.65056 19.8518 4.81033 19.8518 4.90882 19.9558L5.17827 20.2402C5.27677 20.3443 5.27677 20.5129 5.17827 20.617L4.96695 20.84C4.88497 20.9266 4.87119 21.0602 4.91996 21.1713C4.94089 21.2189 4.96003 21.2676 4.97728 21.3173C5.01725 21.4322 5.11651 21.5163 5.23239 21.5163H5.53113C5.67045 21.5163 5.78337 21.6356 5.78337 21.7827V22.185C5.78337 22.3321 5.67045 22.4514 5.53113 22.4514H5.23239C5.11651 22.4514 5.01725 22.5355 4.97728 22.6505C4.96003 22.7001 4.94089 22.7488 4.91996 22.7964C4.87119 22.9075 4.88497 23.0411 4.96695 23.1277L5.17827 23.3508C5.27677 23.4548 5.27677 23.6234 5.17827 23.7275L4.90882 24.012C4.81033 24.116 4.65056 24.116 4.55206 24.012L4.34075 23.7888C4.25878 23.7023 4.13219 23.6877 4.02702 23.7392C3.9819 23.7613 3.93578 23.7815 3.88875 23.7997C3.77994 23.8419 3.70022 23.9467 3.70022 24.0691V24.3845C3.70022 24.5316 3.58727 24.6508 3.44794 24.6508H3.0669C2.92756 24.6508 2.81461 24.5316 2.81461 24.3845V24.0691C2.81461 23.9467 2.73489 23.8419 2.62608 23.7997C2.57906 23.7815 2.53293 23.7613 2.48781 23.7392C2.38264 23.6877 2.25606 23.7023 2.17408 23.7888L1.96278 24.012C1.86426 24.116 1.70453 24.116 1.606 24.012L1.33657 23.7275C1.23804 23.6234 1.23804 23.4548 1.33657 23.3508L1.54787 23.1277C1.62984 23.0411 1.64365 22.9075 1.59489 22.7964C1.57396 22.7488 1.55482 22.7001 1.53755 22.6505C1.4976 22.5355 1.39833 22.4514 1.28242 22.4514H0.983721C0.844394 22.4514 0.731445 22.3321 0.731445 22.185V21.7827C0.731445 21.6356 0.844394 21.5163 0.983721 21.5163H1.28242C1.39833 21.5163 1.4976 21.4322 1.53755 21.3173C1.55482 21.2676 1.57396 21.2189 1.59489 21.1713C1.64366 21.0602 1.62984 20.9266 1.54787 20.84L1.33657 20.617C1.23804 20.5129 1.23804 20.3443 1.33657 20.2402L1.60601 19.9558C1.70453 19.8518 1.86426 19.8518 1.96278 19.9558L2.17408 20.1789C2.25606 20.2654 2.38264 20.28 2.48781 20.2285C2.53294 20.2064 2.57906 20.1862 2.62608 20.168C2.73489 20.1258 2.81461 20.021 2.81461 19.8986V19.5832C2.81461 19.4361 2.92756 19.3169 3.0669 19.3169ZM4.34222 21.4997C4.22306 21.2024 3.99752 20.9643 3.71601 20.8385C3.71076 20.8362 3.7055 20.8338 3.70022 20.8316C3.56352 20.773 3.41404 20.7407 3.25742 20.7407C3.10079 20.7407 2.95131 20.773 2.81461 20.8316C2.80934 20.8338 2.80407 20.8362 2.79883 20.8385C2.51731 20.9643 2.29177 21.2024 2.17262 21.4997C2.1704 21.5052 2.16821 21.5107 2.16607 21.5163C2.11055 21.6606 2.07997 21.8185 2.07997 21.9839C2.07997 22.1492 2.11055 22.3071 2.16607 22.4514C2.16821 22.457 2.1704 22.4625 2.17261 22.4681C2.29177 22.7653 2.51731 23.0034 2.79883 23.1292C2.80407 23.1316 2.80934 23.1339 2.81461 23.1362C2.95131 23.1948 3.10079 23.227 3.25742 23.227C3.41404 23.227 3.56352 23.1948 3.70022 23.1362C3.70351 23.1347 3.7068 23.1333 3.71009 23.1318C3.71206 23.131 3.71403 23.1301 3.71601 23.1292C3.99752 23.0034 4.22306 22.7653 4.34222 22.4681C4.34444 22.4625 4.34662 22.457 4.34876 22.4514C4.40428 22.3071 4.43486 22.1492 4.43486 21.9839C4.43486 21.8185 4.40428 21.6606 4.34876 21.5163C4.34662 21.5107 4.34444 21.5052 4.34222 21.4997Z" fill="#18614D"/>
<path fill-rule="evenodd" clip-rule="evenodd" d="M34.1294 9.20299L34.8913 9.7796C34.9914 9.85534 35.1298 9.8266 35.1999 9.71553L35.2353 9.65943C35.2664 9.61021 35.3216 9.58711 35.3749 9.59778C35.8124 9.68533 36.2443 9.59214 36.607 9.36636C37.064 9.08187 37.411 8.58683 37.5203 7.97768C37.522 7.96839 37.5236 7.95914 37.5251 7.94989C37.6037 7.47846 37.5267 7.01699 37.3338 6.62998C37.2855 6.53309 37.2853 6.41316 37.3434 6.32121C37.4211 6.19824 37.3943 6.03103 37.2834 5.94714L36.7048 5.50924C36.5015 5.35535 36.2203 5.41373 36.0778 5.63941C35.6234 5.55059 35.1754 5.65653 34.8052 5.90323C34.7008 5.97284 34.6025 6.05365 34.5121 6.14446L33.8392 5.60669C33.7579 5.54167 33.7408 5.41624 33.8009 5.3259C33.861 5.23561 33.8439 5.11013 33.7626 5.04516L30.7708 2.65408C30.7222 2.61519 30.7119 2.54009 30.7479 2.48604C30.7839 2.43199 30.7736 2.35689 30.725 2.318L28.9565 0.904534C28.5079 0.546033 27.8734 0.659676 27.5418 1.15792L27.3081 1.50886C27.1079 1.80962 27.1674 2.22954 27.4382 2.44595C27.7107 2.66368 28.0989 2.59372 28.2967 2.28825C28.4926 1.98565 28.874 1.91202 29.1465 2.12367C29.4177 2.33427 29.4798 2.74815 29.2849 3.04926L29.165 3.23448C29.0248 3.45091 29.0672 3.74789 29.2603 3.90216L29.5072 4.09955C29.5672 4.1475 29.6521 4.1323 29.6964 4.06566C29.7408 3.99903 29.8257 3.98383 29.8856 4.03177L32.8429 6.39533C32.9316 6.46613 33.0569 6.4437 33.1224 6.34525C33.1879 6.24685 33.3132 6.22442 33.4018 6.29522L34.0652 6.82536C34.0189 6.93989 33.9817 7.06048 33.9546 7.18625C33.9493 7.211 33.9444 7.2359 33.9399 7.26103C33.86 7.70643 33.9193 8.14414 34.0847 8.51977C34.1273 8.61642 34.1247 8.73218 34.0683 8.82152C33.989 8.94695 34.0164 9.11749 34.1294 9.20299ZM34.1244 7.68964C34.122 7.45006 34.2902 7.25596 34.5044 7.17681L34.5211 7.17064C34.7838 7.07357 34.9514 6.80165 34.9291 6.50872C34.9111 6.27217 35.0143 6.03421 35.2255 5.95292C35.4482 5.86723 35.6897 5.83413 35.9354 5.86486C35.9709 5.86927 36.0065 5.87506 36.042 5.88217C36.5067 5.97517 36.7891 6.15243 37.1084 6.69333C37.2694 6.96606 37.3372 7.29589 37.365 7.55586C37.3931 7.81981 37.2167 8.0454 36.9734 8.11322C36.7289 8.18141 36.5536 8.40776 36.5388 8.67432L36.5341 8.75878C36.5206 9.00078 36.398 9.23125 36.1796 9.30575C35.9422 9.3868 35.6851 9.40852 35.4257 9.35797L35.4182 9.3565C34.9182 9.25644 34.5189 8.90916 34.3033 8.44935C34.1929 8.21394 34.1273 7.96763 34.1244 7.68964Z" fill="#18614D"/>
<path d="M61.8205 1.1251H64.5464C64.5931 1.13493 64.616 1.15953 64.616 1.19889V19.6321H75.3795C75.4168 19.642 75.4352 19.6666 75.4352 19.7059L74.6806 22.2592H74.6105C72.6441 22.2592 68.3669 22.269 61.7787 22.2887L61.7509 22.2149V1.19889C61.7598 1.14969 61.7832 1.1251 61.8205 1.1251ZM86.6038 1.1251C86.8832 1.62688 90.0704 8.61253 96.1649 22.082C96.1833 22.082 96.2161 22.1411 96.2624 22.2592L96.1928 22.2887H93.2432C93.0568 21.964 92.2649 20.2077 90.8672 17.0199H81.3061C81.2688 17.0199 80.6862 18.3186 79.5589 20.9161C79.1393 21.8213 78.9157 22.2788 78.8878 22.2887H75.9382L75.8686 22.2592L85.6812 1.1251H86.6038ZM86.0307 6.32007L82.3822 14.5405H89.7488L86.1003 6.32007H86.0307ZM98.6389 1.1251H106.816C108.987 1.1251 110.842 1.73019 112.379 2.94038C113.973 4.31783 114.77 6.07409 114.77 8.20915V8.78472C114.77 11.2248 113.773 13.1286 111.778 14.4962C111.34 14.7914 110.884 15.0127 110.408 15.1604V15.2342L115.077 22.2149V22.2887H112.002C111.936 22.2395 110.492 20.0798 107.669 15.8097C107.119 15.8491 106.555 15.8688 105.977 15.8688H101.462V22.2149C101.462 22.264 101.444 22.2887 101.407 22.2887H98.6389C98.5921 22.2887 98.5688 22.264 98.5688 22.2149V1.19889C98.5782 1.14969 98.6016 1.1251 98.6389 1.1251ZM101.462 3.78161V13.2565H106.522C109.132 13.2565 110.819 12.3022 111.583 10.3934C111.769 9.84239 111.862 9.33079 111.862 8.85851V8.2534C111.862 6.10852 110.748 4.69663 108.521 4.01774C107.832 3.86032 107.156 3.78161 106.495 3.78161H101.462ZM117.789 1.1251H125.966C128.137 1.1251 129.991 1.73019 131.529 2.94038C133.123 4.31783 133.919 6.07409 133.919 8.20915V8.78472C133.919 11.2248 132.922 13.1286 130.928 14.4962C130.49 14.7914 130.034 15.0127 129.559 15.1604V15.2342L134.227 22.2149V22.2887H131.152C131.087 22.2395 129.642 20.0798 126.819 15.8097C126.269 15.8491 125.705 15.8688 125.127 15.8688H120.612V22.2149C120.612 22.264 120.594 22.2887 120.557 22.2887H117.789C117.742 22.2887 117.719 22.264 117.719 22.2149V1.19889C117.728 1.14969 117.752 1.1251 117.789 1.1251ZM120.612 3.78161V13.2565H125.672C128.282 13.2565 129.968 12.3022 130.733 10.3934C130.919 9.84239 131.012 9.33079 131.012 8.85851V8.2534C131.012 6.10852 129.899 4.69663 127.671 4.01774C126.982 3.86032 126.306 3.78161 125.645 3.78161H120.612ZM136.939 1.1251H139.706C139.743 1.13493 139.762 1.15461 139.762 1.18413V22.2149C139.762 22.264 139.743 22.2887 139.706 22.2887H136.939C136.892 22.2887 136.869 22.264 136.869 22.2149V1.18413C136.878 1.14477 136.902 1.1251 136.939 1.1251ZM144.207 1.1251H152.384C154.556 1.1251 156.41 1.73019 157.948 2.94038C159.541 4.31783 160.338 6.07409 160.338 8.20915V8.78472C160.338 11.3035 159.276 13.2516 157.151 14.629C155.865 15.485 153.969 15.913 151.462 15.913H147.031V22.2149C147.031 22.264 147.012 22.2887 146.975 22.2887H144.207C144.161 22.2887 144.138 22.264 144.138 22.2149V1.19889C144.147 1.14969 144.17 1.1251 144.207 1.1251ZM147.031 3.78161V13.2122H152.217C154.686 13.2122 156.331 12.2825 157.151 10.4229C157.337 9.83257 157.431 9.30618 157.431 8.84376V8.2534C157.431 6.10852 156.317 4.69663 154.09 4.01774C153.4 3.86032 152.724 3.78161 152.063 3.78161H147.031ZM163.441 1.1251H166.209C166.246 1.13493 166.265 1.15461 166.265 1.18413V22.2149C166.265 22.264 166.246 22.2887 166.209 22.2887H163.441C163.395 22.2887 163.371 22.264 163.371 22.2149V1.18413C163.381 1.14477 163.404 1.1251 163.441 1.1251ZM170.71 1.1251H171.94L185.023 16.4738V15.6031C185.023 12.0217 185.014 7.20555 184.996 1.15461L185.051 1.1251H187.819C187.866 1.13493 187.889 1.15953 187.889 1.19889V22.2149C187.889 22.264 187.866 22.2887 187.819 22.2887H186.295L173.505 6.93993V22.2149C173.505 22.264 173.482 22.2887 173.435 22.2887H170.71C170.663 22.2887 170.64 22.264 170.64 22.2149V1.19889C170.649 1.14969 170.673 1.1251 170.71 1.1251ZM201.713 1.1251C203.568 1.1251 205.185 1.48914 206.563 2.21722C207.188 2.53206 207.509 2.71408 207.528 2.76328C207.509 3.86524 207.477 4.84911 207.43 5.71496H207.402C205.697 4.42606 203.884 3.78161 201.965 3.78161H201.587C199.127 3.78161 197.091 4.8098 195.479 6.86609C194.501 8.29276 194.011 9.91125 194.011 11.7217C194.011 14.5061 195.12 16.7051 197.338 18.3186C198.652 19.1943 200.059 19.6321 201.559 19.6321H202.035C203.516 19.6321 204.956 19.2041 206.354 18.3482V14.4519H201.196C201.14 14.4519 200.94 13.7485 200.595 12.3415C200.586 12.3218 200.516 12.0857 200.385 11.6331L200.441 11.5888H208.996C209.033 11.5986 209.052 11.6233 209.052 11.6626V19.6321C208.39 20.2422 207.645 20.744 206.815 21.1375C205.175 21.905 203.446 22.2887 201.63 22.2887C198.032 22.2887 195.162 20.8226 193.019 17.8906C191.817 16.0212 191.215 14.0879 191.215 12.0906V11.4264C191.215 8.51413 192.292 5.99043 194.444 3.8554C196.439 2.0352 198.862 1.1251 201.713 1.1251Z" fill="#18614D"/>
<path d="M60.8391 32.8409H62.4318C62.4551 32.8471 62.4673 32.8595 62.4673 32.878V36.8552H64.0159C64.0631 36.8118 65.031 35.4799 66.9206 32.8595L66.9646 32.8409H68.6983V32.8595L65.301 37.4313L68.927 42.319V42.3562H67.0347C66.9646 42.2943 65.9814 40.9964 64.0864 38.4627L63.9809 38.3512H62.4673V42.319C62.4673 42.3439 62.4551 42.3562 62.4318 42.3562H60.8391C60.8153 42.3562 60.8036 42.3439 60.8036 42.319V32.878C60.8094 32.8533 60.8211 32.8409 60.8391 32.8409ZM73.7235 32.8409C75.4603 32.8409 76.7894 33.6214 77.7106 35.1826C78.0802 35.9321 78.2648 36.7034 78.2648 37.4964V37.6729C78.2648 39.1225 77.7281 40.3336 76.6542 41.3062C75.8152 42.0062 74.8266 42.3562 73.6884 42.3562C72.0868 42.3562 70.8161 41.6934 69.8774 40.3677C69.3496 39.5499 69.0855 38.6207 69.0855 37.58C69.0855 35.9011 69.7453 34.5754 71.0658 33.6029C71.8402 33.0949 72.7263 32.8409 73.7235 32.8409ZM70.7312 37.422V37.7565C70.7312 38.7601 71.1242 39.5964 71.9107 40.2655C72.4268 40.6557 72.9815 40.8509 73.5739 40.8509H73.794C74.7561 40.8509 75.5394 40.4048 76.1439 39.5128C76.4723 38.9614 76.6367 38.3171 76.6367 37.58C76.6367 36.2605 76.1323 35.2972 75.123 34.6901C74.7062 34.4547 74.2692 34.337 73.8115 34.337H73.5564C72.5413 34.337 71.7288 34.8387 71.1184 35.8423C70.8601 36.3875 70.7312 36.914 70.7312 37.422ZM84.725 29.2726H86.2122C86.2355 29.2788 86.2476 29.2912 86.2476 29.3098V32.8409C86.9398 32.8409 87.773 33.0174 88.7467 33.3705C89.2983 33.5998 89.8382 33.9839 90.3664 34.5228C91.0176 35.3281 91.3433 36.2666 91.3433 37.3384V37.5985C91.3433 39.4694 90.4778 40.8168 88.7467 41.6407C87.8376 42 87.0278 42.1797 86.3177 42.1797C86.3177 42.192 86.2943 42.1983 86.2476 42.1983V45.3762C86.2476 45.401 86.2355 45.4134 86.2122 45.4134H84.725C84.7012 45.4134 84.6895 45.401 84.6895 45.3762V42.1983C84.2085 42.1983 83.5307 42.0775 82.6567 41.8359C81.536 41.4456 80.7028 40.7951 80.1571 39.8845C79.7816 39.1782 79.5939 38.3729 79.5939 37.4685C79.5939 35.3498 80.5915 33.9343 82.5861 33.2219C83.4368 32.9679 84.138 32.8409 84.6895 32.8409V29.3098C84.6954 29.285 84.707 29.2726 84.725 29.2726ZM81.1691 37.3755V37.5985C81.1691 39.011 81.8702 39.9619 83.2729 40.4513C83.8595 40.6186 84.3315 40.7022 84.6895 40.7022V34.3277C83.8802 34.3277 83.0878 34.5569 82.3135 35.0153C81.5504 35.5914 81.1691 36.3782 81.1691 37.3755ZM86.2476 34.3277V40.7208C86.8342 40.7208 87.5237 40.5442 88.3155 40.1911C89.2956 39.646 89.7856 38.7384 89.7856 37.4685C89.7856 35.9569 89.0405 34.9812 87.5502 34.5414C87.0278 34.3989 86.5935 34.3277 86.2476 34.3277ZM97.0902 32.8409C98.6627 32.8409 99.8862 33.5285 100.76 34.9038C101.218 35.7215 101.447 36.6322 101.447 37.6357C101.441 37.9888 101.417 38.1654 101.376 38.1654H94.265C94.3238 38.6981 94.5206 39.2061 94.8547 39.6893C95.5235 40.4823 96.3774 40.8787 97.4158 40.8787C98.5481 40.8787 99.5282 40.6495 100.356 40.1911H100.373V41.65C100.156 41.8296 99.7626 42.0124 99.1936 42.1983C98.7597 42.3036 98.1668 42.3562 97.4158 42.3562C95.6731 42.3562 94.3387 41.681 93.4116 40.3305C92.9068 39.519 92.6543 38.6021 92.6543 37.58C92.6543 35.7773 93.382 34.3927 94.8372 33.4263C95.5473 33.036 96.2983 32.8409 97.0902 32.8409ZM94.265 36.9388H99.8978V36.9202C99.8978 36.4866 99.7069 35.9724 99.3256 35.3777C98.7332 34.6467 98.0231 34.2812 97.1957 34.2812H96.9756C95.9547 34.2812 95.1597 34.783 94.5906 35.7865C94.4325 36.0839 94.3238 36.468 94.265 36.9388ZM105.134 29.1054H106.19C106.214 29.1115 106.225 29.1239 106.225 29.1425V29.2076C106.225 29.6784 106.449 30.0625 106.895 30.3598C107.118 30.5085 107.405 30.5828 107.757 30.5828C108.467 30.5828 108.954 30.2824 109.218 29.6815C109.265 29.5328 109.303 29.347 109.332 29.1239L109.368 29.1054H110.441L110.485 29.1239C110.485 30.239 109.987 31.0041 108.989 31.4191C108.614 31.5368 108.261 31.5957 107.933 31.5957H107.669C106.273 31.5957 105.434 30.9576 105.152 29.6815C105.129 29.5266 105.111 29.3408 105.099 29.1239L105.134 29.1054ZM103.524 32.8409H105.099C105.123 32.8409 105.134 32.8595 105.134 32.8966C105.134 33.9188 105.129 36.1211 105.117 39.5035C105.375 39.2433 107.34 37.0534 111.013 32.9338L111.128 32.8409H112.087C112.111 32.8409 112.122 32.8533 112.122 32.878V42.319C112.122 42.3439 112.111 42.3562 112.087 42.3562H110.521L110.485 42.3376C110.485 42.3129 110.491 42.1518 110.503 41.8544C110.503 40.2995 110.515 38.2397 110.538 35.675L104.51 42.3562H103.524C103.5 42.3562 103.489 42.3439 103.489 42.319V32.878C103.495 32.8533 103.506 32.8409 103.524 32.8409ZM114.578 32.8409H116.171C116.194 32.8471 116.206 32.8595 116.206 32.878V36.8737H121.311V32.878C121.311 32.8533 121.322 32.8409 121.346 32.8409H122.93C122.954 32.8471 122.965 32.8595 122.965 32.878V42.319C122.965 42.3439 122.954 42.3562 122.93 42.3562H121.346C121.322 42.3562 121.311 42.3439 121.311 42.319V38.3884H116.206V42.319C116.206 42.3439 116.194 42.3562 116.171 42.3562H114.578C114.555 42.3562 114.542 42.3439 114.542 42.319V32.878C114.549 32.8533 114.56 32.8409 114.578 32.8409ZM125.421 32.8409H127.005C127.034 32.8471 127.049 32.8595 127.049 32.878V36.0467H128.783C130.243 36.0467 131.203 36.2326 131.661 36.6043C132.529 37.1308 132.963 37.9919 132.963 39.1875C132.963 40.6557 132.279 41.6376 130.913 42.1332C130.42 42.2819 129.921 42.3562 129.417 42.3562H125.421C125.397 42.3562 125.385 42.3439 125.385 42.319V32.878C125.391 32.8533 125.403 32.8409 125.421 32.8409ZM134.319 32.8409H135.885C135.914 32.8471 135.929 32.8595 135.929 32.878V42.3005C135.929 42.3253 135.914 42.3376 135.885 42.3376H134.319C134.295 42.3376 134.283 42.3253 134.283 42.3005V32.878C134.289 32.8533 134.301 32.8409 134.319 32.8409ZM127.049 37.3198V41.0181H127.515C128.014 41.0181 128.586 41.0274 129.232 41.046C130.194 41.046 130.836 40.6929 131.159 39.9867C131.247 39.7451 131.291 39.5066 131.291 39.2712V39.0296C131.291 38.2242 130.886 37.707 130.076 37.4778C129.906 37.3724 128.897 37.3198 127.049 37.3198ZM139.986 29.1054H141.042C141.066 29.1115 141.078 29.1239 141.078 29.1425V29.2076C141.078 29.6784 141.301 30.0625 141.747 30.3598C141.969 30.5085 142.257 30.5828 142.609 30.5828C143.319 30.5828 143.806 30.2824 144.07 29.6815C144.117 29.5328 144.155 29.347 144.184 29.1239L144.22 29.1054H145.293L145.337 29.1239C145.337 30.239 144.839 31.0041 143.841 31.4191C143.466 31.5368 143.113 31.5957 142.785 31.5957H142.521C141.125 31.5957 140.286 30.9576 140.004 29.6815C139.981 29.5266 139.963 29.3408 139.951 29.1239L139.986 29.1054ZM138.376 32.8409H139.951C139.975 32.8409 139.986 32.8595 139.986 32.8966C139.986 33.9188 139.981 36.1211 139.969 39.5035C140.227 39.2433 142.193 37.0534 145.865 32.9338L145.98 32.8409H146.939C146.963 32.8409 146.974 32.8533 146.974 32.878V42.319C146.974 42.3439 146.963 42.3562 146.939 42.3562H145.373L145.337 42.3376C145.337 42.3129 145.343 42.1518 145.355 41.8544C145.355 40.2995 145.367 38.2397 145.39 35.675L139.362 42.3562H138.376C138.352 42.3562 138.341 42.3439 138.341 42.319V32.878C138.347 32.8533 138.358 32.8409 138.376 32.8409ZM158.02 32.8409C158.976 32.8409 159.765 33.067 160.387 33.5192L160.405 33.5564V34.1883C160.405 34.4299 160.399 34.7861 160.387 35.2569H160.369C159.648 34.6312 158.853 34.3184 157.984 34.3184C156.641 34.3184 155.699 34.9905 155.159 36.3348C155.036 36.7374 154.975 37.1401 154.975 37.5428V37.6543C154.975 38.9367 155.485 39.8875 156.506 40.5071C156.946 40.7486 157.45 40.8695 158.02 40.8695C158.853 40.8695 159.636 40.5597 160.369 39.9402H160.387V39.9588C160.399 40.4048 160.405 40.7549 160.405 41.0089V41.6314C160.129 41.935 159.557 42.1642 158.689 42.319C158.395 42.3439 158.161 42.3562 157.984 42.3562C156.23 42.3562 154.887 41.6035 153.954 40.0982C153.549 39.3486 153.347 38.5154 153.347 37.5985C153.347 35.7649 154.092 34.3865 155.582 33.4635C156.286 33.0484 157.098 32.8409 158.02 32.8409ZM166.16 32.8409C167.733 32.8409 168.956 33.5285 169.83 34.9038C170.288 35.7215 170.517 36.6322 170.517 37.6357C170.511 37.9888 170.488 38.1654 170.447 38.1654H163.336C163.394 38.6981 163.591 39.2061 163.925 39.6893C164.594 40.4823 165.448 40.8787 166.486 40.8787C167.619 40.8787 168.598 40.6495 169.426 40.1911H169.443V41.65C169.226 41.8296 168.833 42.0124 168.264 42.1983C167.83 42.3036 167.237 42.3562 166.486 42.3562C164.744 42.3562 163.409 41.681 162.482 40.3305C161.977 39.519 161.725 38.6021 161.725 37.58C161.725 35.7773 162.453 34.3927 163.907 33.4263C164.618 33.036 165.369 32.8409 166.16 32.8409ZM163.336 36.9388H168.968V36.9202C168.968 36.4866 168.778 35.9724 168.396 35.3777C167.803 34.6467 167.093 34.2812 166.266 34.2812H166.046C165.025 34.2812 164.23 34.783 163.661 35.7865C163.503 36.0839 163.394 36.468 163.336 36.9388ZM177.259 32.8409C178.925 32.8409 180.21 33.5936 181.114 35.0989C181.495 35.8609 181.686 36.691 181.686 37.5893C181.686 38.9645 181.272 40.0982 180.445 40.9903C179.576 41.8885 178.503 42.3376 177.223 42.3376C175.956 42.3376 174.935 41.8452 174.161 40.8602V45.9152C174.161 45.9462 174.149 45.9617 174.126 45.9617H172.594C172.571 45.9617 172.559 45.9462 172.559 45.9152V32.9988C172.565 32.9741 172.577 32.9617 172.594 32.9617H173.624C173.653 32.9617 173.809 33.448 174.09 34.4206C174.865 33.3674 175.921 32.8409 177.259 32.8409ZM174.17 37.6078C174.17 39.1999 174.921 40.2778 176.423 40.8416C176.681 40.9283 176.913 40.9717 177.118 40.9717C178.344 40.9717 179.286 40.3553 179.943 39.1225C180.172 38.5959 180.286 38.0849 180.286 37.5893C180.286 36.3813 179.808 35.4025 178.852 34.6529C178.447 34.3803 177.813 34.244 176.951 34.244C176.505 34.244 175.927 34.5042 175.217 35.0246C174.519 35.6813 174.17 36.5423 174.17 37.6078ZM183.508 32.8409H187.397C189.181 32.8409 190.287 33.3055 190.716 34.2347C190.85 34.5631 190.918 34.8821 190.918 35.1918V35.3684C190.918 36.3348 190.498 37.0131 189.659 37.4034H189.642C189.665 37.422 189.847 37.4932 190.187 37.6171C190.962 38.0446 191.349 38.7167 191.349 39.6336V39.8659C191.349 40.8756 190.83 41.6005 189.791 42.0403C189.316 42.2509 188.58 42.3562 187.582 42.3562H183.508C183.484 42.3562 183.472 42.3439 183.472 42.319V32.878C183.478 32.8533 183.49 32.8409 183.508 32.8409ZM185.074 34.179V36.9202H187.679C188.583 36.9202 189.122 36.5888 189.298 35.9259C189.322 35.7401 189.334 35.6131 189.334 35.545C189.334 34.8635 188.996 34.433 188.322 34.2533C188.017 34.2037 187.644 34.179 187.204 34.179H185.074ZM185.074 38.1747V41.0181H187.433C188.759 41.0181 189.495 40.7208 189.642 40.1261C189.689 40.0331 189.712 39.9061 189.712 39.7451V39.5314C189.712 38.6269 189.052 38.1747 187.732 38.1747H185.074ZM193.312 32.8409H194.861C194.884 32.8471 194.896 32.8625 194.896 32.8873V39.5128L200.872 32.8688H200.889C201.065 32.8688 201.391 32.8595 201.866 32.8409L201.893 32.8873V42.319C201.893 42.3439 201.878 42.3562 201.849 42.3562H200.291L200.247 42.3376C200.247 42.2076 200.253 41.935 200.265 41.5199C200.265 39.9279 200.279 37.9858 200.309 35.6936L194.298 42.3562H193.312C193.288 42.3562 193.277 42.3439 193.277 42.319V32.8873C193.282 32.8564 193.294 32.8409 193.312 32.8409ZM208.467 32.8409C209.424 32.8409 210.213 33.067 210.834 33.5192L210.852 33.5564V34.1883C210.852 34.4299 210.846 34.7861 210.834 35.2569H210.817C210.095 34.6312 209.3 34.3184 208.432 34.3184C207.088 34.3184 206.147 34.9905 205.607 36.3348C205.484 36.7374 205.422 37.1401 205.422 37.5428V37.6543C205.422 38.9367 205.932 39.8875 206.953 40.5071C207.394 40.7486 207.898 40.8695 208.467 40.8695C209.3 40.8695 210.083 40.5597 210.817 39.9402H210.834V39.9588C210.846 40.4048 210.852 40.7549 210.852 41.0089V41.6314C210.576 41.935 210.004 42.1642 209.136 42.319C208.842 42.3439 208.608 42.3562 208.432 42.3562C206.678 42.3562 205.334 41.6035 204.401 40.0982C203.996 39.3486 203.794 38.5154 203.794 37.5985C203.794 35.7649 204.539 34.3865 206.029 33.4635C206.733 33.0484 207.546 32.8409 208.467 32.8409Z" fill="#18614D"/>
</g>
<defs>
<clipPath id="clip0_1_1609">
<rect width="212" height="46" fill="white"/>
</clipPath>
</defs>
</svg>