<svg width="24" height="24" viewBox="0 0 24 24" fill="none" xmlns="http://www.w3.org/2000/svg">
<path d="M19.0847 15.4183L22.836 19.1696C22.9564 19.2894 23.0519 19.4318 23.1171 19.5886C23.1822 19.7454 23.2158 19.9135 23.2158 20.0833C23.2158 20.2532 23.1822 20.4213 23.1171 20.5781C23.0519 20.7349 22.9564 20.8773 22.836 20.9971C21.5169 22.3165 19.7661 23.1157 17.9051 23.2479C16.0441 23.3801 14.1978 22.8364 12.7054 21.7168L10.4742 20.0423C8.00419 18.1898 5.81003 15.9956 3.95753 13.5256L2.28303 11.2943C1.16336 9.80197 0.619707 7.95573 0.751912 6.09472C0.884116 4.23371 1.6833 2.48287 3.00269 1.16376C3.12248 1.0434 3.26487 0.947889 3.42168 0.882718C3.57849 0.817546 3.74663 0.783997 3.91644 0.783997C4.08626 0.783997 4.2544 0.817546 4.4112 0.882718C4.56801 0.947889 4.7104 1.0434 4.83019 1.16376L8.58153 4.91509C8.84711 5.18076 8.99631 5.54103 8.99631 5.91668C8.99631 6.29233 8.84711 6.6526 8.58153 6.91826L7.13511 8.36468C7.02221 8.47644 6.94767 8.62114 6.92222 8.77795C6.89676 8.93476 6.9217 9.0956 6.99344 9.23734C8.6742 12.5995 11.4003 15.3256 14.7624 17.0063C14.9042 17.0781 15.065 17.103 15.2218 17.0776C15.3786 17.0521 15.5233 16.9776 15.6351 16.8647L17.0801 15.4197C17.2117 15.288 17.3679 15.1835 17.5399 15.1122C17.7119 15.0409 17.8962 15.0042 18.0824 15.0042C18.2686 15.0042 18.4529 15.0409 18.6249 15.1122C18.7969 15.1835 18.9531 15.288 19.0847 15.4197" fill="white"/>
</svg>