<svg width="30" height="30" viewBox="0 0 30 30" fill="none" xmlns="http://www.w3.org/2000/svg">
<path d="M15.0002 0.833313C7.18016 0.833313 0.833496 7.17998 0.833496 15C0.833496 22.82 7.18016 29.1666 15.0002 29.1666C22.8202 29.1666 29.1668 22.82 29.1668 15C29.1668 7.17998 22.8202 0.833313 15.0002 0.833313ZM21.5735 10.4666C21.361 12.705 20.4402 18.145 19.9727 20.6525C19.7743 21.715 19.3777 22.0691 19.0093 22.1116C18.1877 22.1825 17.5643 21.5733 16.771 21.0491C15.5243 20.2275 14.816 19.7175 13.6118 18.9241C12.2093 18.0033 13.116 17.4933 13.9235 16.6716C14.136 16.4591 17.7627 13.1583 17.8335 12.8608C17.8433 12.8158 17.842 12.769 17.8297 12.7245C17.8173 12.6801 17.7943 12.6393 17.7627 12.6058C17.6777 12.535 17.5643 12.5633 17.4652 12.5775C17.3377 12.6058 15.3543 13.9233 11.4868 16.53C10.9202 16.9125 10.4102 17.1108 9.95683 17.0966C9.44683 17.0825 8.4835 16.8133 7.761 16.5725C6.8685 16.2891 6.17433 16.1333 6.231 15.6375C6.25933 15.3825 6.6135 15.1275 7.27933 14.8583C11.416 13.0591 14.1643 11.8691 15.5385 11.3025C19.4768 9.65915 20.2843 9.37581 20.8227 9.37581C20.936 9.37581 21.2052 9.40415 21.3752 9.54581C21.5168 9.65914 21.5593 9.81498 21.5735 9.92831C21.5593 10.0133 21.5877 10.2683 21.5735 10.4666Z" fill="white"/>
</svg>