<svg width="28" height="30" viewBox="0 0 28 30" fill="none" xmlns="http://www.w3.org/2000/svg">
<path d="M0.5 24.5V21.5H21.5L18.89 18.86L21.005 16.745L27.26 23L21.005 29.255L18.89 27.14L21.5 24.5H0.5ZM21.5 8V3.5H18.5V8H21.5ZM21.5 0.5C22.2956 0.5 23.0587 0.81607 23.6213 1.37868C24.1839 1.94129 24.5 2.70435 24.5 3.5V8C24.5 9.665 23.165 11 21.5 11H18.5V12.5C18.5 14.0913 17.8679 15.6174 16.7426 16.7426C15.6174 17.8679 14.0913 18.5 12.5 18.5H6.5C4.9087 18.5 3.38258 17.8679 2.25736 16.7426C1.13214 15.6174 0.5 14.0913 0.5 12.5V0.5H21.5Z" fill="#18614D"/>
</svg>
