<svg width="26" height="26" viewBox="0 0 26 26" fill="none" xmlns="http://www.w3.org/2000/svg">
<path d="M2.035 2.035C0.25 3.837 0.25 6.7185 0.25 12.49V13.51C0.25 19.273 0.25 22.1545 2.035 23.965C3.837 25.75 6.7185 25.75 12.49 25.75H13.51C19.273 25.75 22.1545 25.75 23.965 23.965C25.75 22.163 25.75 19.2815 25.75 13.51V12.49C25.75 6.727 25.75 3.8455 23.965 2.035C22.163 0.25 19.2815 0.25 13.51 0.25H12.49C6.727 0.25 3.8455 0.25 2.035 2.035ZM4.551 8.0105H7.475C7.5685 12.8725 9.7105 14.9295 11.4105 15.3545V8.0105H14.156V12.201C15.8305 12.0225 17.5985 10.11 18.1935 8.002H20.9305C20.7072 9.09314 20.2613 10.1265 19.6207 11.0377C18.9802 11.9488 18.1587 12.7181 17.2075 13.2975C18.2692 13.8257 19.2068 14.5731 19.9584 15.4903C20.7101 16.4075 21.2587 17.4737 21.568 18.6185H18.5505C17.9045 16.604 16.2895 15.04 14.156 14.8275V18.6185H13.816C8.002 18.6185 4.687 14.6405 4.551 8.0105Z" fill="white"/>
</svg>
